<svg width="54" height="54" viewBox="0 0 54 54" fill="none" xmlns="http://www.w3.org/2000/svg">
<circle cx="27" cy="27" r="27" fill="#F3F7FC"/>
<path d="M24.3645 45C24.9167 45.0035 25.3673 44.5586 25.3708 44.0063L25.4276 35.0065C25.4311 34.4542 24.9862 34.0037 24.434 34.0002C23.8817 33.9967 23.4312 34.4416 23.4277 34.9939L23.3771 42.9937L15.3773 42.9432C14.825 42.9397 14.3745 43.3845 14.371 43.9368C14.3675 44.4891 14.8124 44.9396 15.3646 44.9431L24.3645 45ZM30.4445 9.00002C29.8922 8.99653 29.4417 9.44141 29.4382 9.99368L29.3814 18.9935C29.3779 19.5458 29.8227 19.9963 30.375 19.9998C30.9273 20.0033 31.3778 19.5584 31.3813 19.0061L31.4319 11.0063L39.4317 11.0568C39.984 11.0603 40.4345 10.6155 40.438 10.0632C40.4415 9.51091 39.9966 9.06038 39.4443 9.05689L30.4445 9.00002ZM13.7926 33.2873L13.081 33.9899L13.7926 33.2873ZM25.0823 43.2974L14.5042 32.5847L13.081 33.9899L23.6592 44.7026L25.0823 43.2974ZM22.9116 24.2828L29.056 30.5054L30.4791 29.1001L24.3347 22.8776L22.9116 24.2828ZM40.7193 18.9886L31.1498 9.29738L29.7266 10.7026L39.2962 20.3938L40.7193 18.9886ZM40.7193 30.5054C43.8712 27.3134 43.8712 22.1806 40.7193 18.9886L39.2962 20.3938C41.6789 22.8069 41.6789 26.6871 39.2962 29.1001L40.7193 30.5054ZM29.056 30.5054C32.2647 33.7549 37.5105 33.7549 40.7193 30.5054L39.2962 29.1001C36.8705 31.5567 32.9048 31.5567 30.4791 29.1001L29.056 30.5054ZM14.5042 24.2828C16.8172 21.9404 20.5986 21.9404 22.9116 24.2828L24.3347 22.8776C21.2387 19.7421 16.1771 19.7421 13.081 22.8776L14.5042 24.2828ZM14.5042 32.5847C12.2321 30.2837 12.2321 26.5837 14.5042 24.2828L13.081 22.8776C10.0398 25.9574 10.0398 30.91 13.081 33.9899L14.5042 32.5847Z" fill="#AD8024"/>
</svg>
