<svg width="54" height="54" viewBox="0 0 54 54" fill="none" xmlns="http://www.w3.org/2000/svg">
<circle cx="27" cy="27" r="27" fill="#F3F7FC"/>
<path d="M22.2022 53.4944C22.7545 53.4944 23.2022 53.0467 23.2022 52.4944V43.4944C23.2022 42.9421 22.7545 42.4944 22.2022 42.4944C21.65 42.4944 21.2022 42.9421 21.2022 43.4944V51.4944H13.2022C12.65 51.4944 12.2022 51.9421 12.2022 52.4944C12.2022 53.0467 12.65 53.4944 13.2022 53.4944H22.2022ZM30.9663 3C30.414 3 29.9663 3.44772 29.9663 4V13C29.9663 13.5523 30.414 14 30.9663 14C31.5186 14 31.9663 13.5523 31.9663 13V5H39.9663C40.5186 5 40.9663 4.55228 40.9663 4C40.9663 3.44772 40.5186 3 39.9663 3H30.9663ZM22.9094 51.7873L7.71834 36.5963L6.30412 38.0105L21.4951 53.2015L22.9094 51.7873ZM20.3266 23.988L29.3828 33.0442L30.797 31.63L21.7408 22.5738L20.3266 23.988ZM45.4037 17.0232L31.6734 3.29289L30.2592 4.70711L43.9895 18.4374L45.4037 17.0232ZM45.4037 33.0442C49.8278 28.6201 49.8278 21.4473 45.4037 17.0232L43.9895 18.4374C47.6325 22.0805 47.6325 27.987 43.9895 31.63L45.4037 33.0442ZM29.3828 33.0442C33.8068 37.4682 40.9797 37.4682 45.4037 33.0442L43.9895 31.63C40.3465 35.273 34.44 35.273 30.797 31.63L29.3828 33.0442ZM7.71834 23.988C11.2 20.5063 16.8449 20.5063 20.3266 23.988L21.7408 22.5738C17.4781 18.3111 10.5669 18.3111 6.30413 22.5738L7.71834 23.988ZM7.71834 36.5963C4.23666 33.1146 4.23667 27.4697 7.71834 23.988L6.30413 22.5738C2.04141 26.8365 2.0414 33.7477 6.30412 38.0105L7.71834 36.5963Z" fill="#AD8024"/>
</svg>
