<svg width="34" height="34" viewBox="0 0 34 34" fill="none" xmlns="http://www.w3.org/2000/svg">
<g clip-path="url(#clip0_522_2257)">
<path d="M11.1978 13.9833H13.6877V22H11.1978V13.9833ZM12.4436 10C13.2402 10 13.8846 10.6477 13.8846 11.4435C13.8846 12.2393 13.2393 12.8896 12.4436 12.8896C11.648 12.8896 11 12.241 11 11.4435C11 10.646 11.6453 10 12.4436 10Z" fill="white"/>
<path d="M15.2473 13.9834H17.6317V15.0797H17.6642C17.9965 14.4487 18.8071 13.7852 20.0187 13.7852C22.5358 13.7852 23 15.4446 23 17.6036V22.0002H20.5154V18.1024C20.5154 17.1718 20.4969 15.9768 19.223 15.9768C17.9288 15.9768 17.7319 16.9894 17.7319 18.0346V22.0002H15.2473V13.9834V13.9834Z" fill="white"/>
</g>
<circle cx="17" cy="17" r="16.7" stroke="white" stroke-width="0.6"/>
<defs>
<clipPath id="clip0_522_2257">
<rect width="12" height="12" fill="white" transform="translate(11 10)"/>
</clipPath>
</defs>
</svg>
