<svg width="213" height="54" viewBox="0 0 213 54" fill="none" xmlns="http://www.w3.org/2000/svg">
<g clip-path="url(#clip0_301_331)">
<path d="M80.8545 18.5864C80.7051 18.5183 80.5506 18.4592 80.3914 18.4086C80.8884 18.1466 81.2923 17.7892 81.5961 17.3286C81.9175 16.8416 82.0784 16.253 82.0784 15.5625C82.0784 14.5392 81.6704 13.7223 80.8545 13.1119C80.0384 12.5016 78.8575 12.1965 77.3121 12.1965H71.2104V25.1425H77.683C79.3521 25.1425 80.6103 24.8346 81.4573 24.2179C82.3038 23.6016 82.7276 22.7383 82.7276 21.6287C82.7276 20.8768 82.5606 20.248 82.2269 19.7423C81.893 19.2368 81.4355 18.8517 80.8545 18.5864ZM77.0339 14.0831C77.8622 14.0831 78.5051 14.231 78.9628 14.5271C79.4202 14.8229 79.6489 15.2732 79.6489 15.8772C79.6489 16.4691 79.4202 16.9128 78.9628 17.2088C78.5051 17.5047 77.8622 17.6528 77.0339 17.6528H73.6216V14.0835H77.0339V14.0831ZM79.5932 22.8124C79.111 23.1082 78.4249 23.2563 77.5347 23.2563H73.6216V19.5205H77.5347C78.4249 19.5205 79.111 19.6717 79.5932 19.9737C80.0756 20.2759 80.3167 20.7475 80.3167 21.3884C80.3167 22.0422 80.0756 22.5166 79.5932 22.8124Z" fill="#363D4C"/>
<path d="M98.4542 20.815C99.2763 20.4451 99.9101 19.9212 100.355 19.2429C100.8 18.5649 101.023 17.7513 101.023 16.8016C101.023 15.8398 100.8 15.0141 100.355 14.3234C99.9101 13.633 99.2763 13.1058 98.4542 12.742C97.6319 12.3785 96.6461 12.1965 95.4961 12.1965H90.1548V25.1425H92.5659V21.3698H95.4961C95.6691 21.3698 95.8372 21.3642 96.0028 21.3558L98.6488 25.1425H101.245L98.2602 20.8946C98.3252 20.8684 98.391 20.8431 98.4542 20.8148V20.815ZM97.7866 14.906C98.3244 15.3563 98.5933 15.988 98.5933 16.8016C98.5933 17.6152 98.3244 18.2506 97.7866 18.7067C97.2488 19.1629 96.448 19.3908 95.3848 19.3908H92.5659V14.231H95.3848C96.448 14.231 97.2488 14.4561 97.7866 14.906Z" fill="#363D4C"/>
<path d="M119.769 13.8889C119.144 13.2911 118.406 12.8286 117.553 12.5018C116.7 12.1754 115.772 12.0117 114.771 12.0117C113.757 12.0117 112.823 12.1781 111.971 12.5111C111.117 12.844 110.376 13.3095 109.745 13.9073C109.115 14.5056 108.626 15.2082 108.28 16.0157C107.934 16.8234 107.761 17.708 107.761 18.6698C107.761 19.6192 107.934 20.4977 108.28 21.3052C108.626 22.1128 109.115 22.8188 109.745 23.4227C110.376 24.0269 111.12 24.4955 111.98 24.8283C112.839 25.1612 113.769 25.3276 114.771 25.3276C115.772 25.3276 116.7 25.1641 117.553 24.8375C118.406 24.5109 119.144 24.0454 119.769 23.4412C120.393 22.8372 120.878 22.1313 121.224 21.3236C121.571 20.5161 121.744 19.6313 121.744 18.6698C121.744 17.7082 121.571 16.8203 121.224 16.0067C120.878 15.1928 120.393 14.4873 119.769 13.8891V13.8889ZM118.971 20.5005C118.742 21.0555 118.424 21.5362 118.016 21.9432C117.608 22.3502 117.129 22.6645 116.579 22.8865C116.028 23.1085 115.426 23.2194 114.771 23.2194C114.115 23.2194 113.506 23.1085 112.944 22.8865C112.381 22.6645 111.896 22.3473 111.488 21.934C111.08 21.521 110.758 21.0368 110.523 20.4821C110.288 19.9271 110.171 19.3234 110.171 18.6698C110.171 18.0038 110.288 17.3968 110.523 16.848C110.758 16.2996 111.08 15.8187 111.488 15.4054C111.896 14.9924 112.381 14.6748 112.944 14.4528C113.506 14.2309 114.115 14.1199 114.771 14.1199C115.426 14.1199 116.028 14.2309 116.579 14.4528C117.129 14.6748 117.611 14.9891 118.025 15.3961C118.439 15.8032 118.758 16.2838 118.981 16.8388C119.203 17.3935 119.314 18.0038 119.314 18.6698C119.314 19.3357 119.2 19.9458 118.971 20.5005Z" fill="#363D4C"/>
<path d="M138.508 25.1428H141.048L135.188 12.1968H132.814L126.972 25.1428H129.439L130.729 22.1467H137.222L138.508 25.1428H138.508ZM131.541 20.2603L133.981 14.5948L136.413 20.2603H131.541Z" fill="#363D4C"/>
<path d="M156.987 13.0012C155.917 12.4649 154.69 12.1968 153.305 12.1968H147.612V25.1428H153.305C154.69 25.1428 155.917 24.8746 156.987 24.3384C158.056 23.8021 158.888 23.0469 159.481 22.0729C160.075 21.099 160.371 19.9645 160.371 18.67C160.371 17.3755 160.075 16.2412 159.481 15.2671C158.888 14.2932 158.056 13.5379 156.987 13.0016V13.0012ZM157.358 20.9999C156.956 21.6658 156.399 22.1836 155.689 22.5535C154.978 22.9234 154.134 23.1083 153.157 23.1083H150.023V14.2311H153.157C154.134 14.2311 154.978 14.4159 155.689 14.7858C156.399 15.1557 156.956 15.6676 157.358 16.3208C157.759 16.9746 157.961 17.7572 157.961 18.6696C157.961 19.5573 157.759 20.334 157.358 20.9997V20.9999Z" fill="#363D4C"/>
<path d="M176.394 25.1428H178.805V20.1678H185.074V18.1704H178.805V14.2311H185.871V12.1968H176.394V25.1428Z" fill="#363D4C"/>
<path d="M195.174 12.1968H192.763V25.1428H195.174V12.1968Z" fill="#363D4C"/>
<path d="M201.984 12.1968V14.2311H206.286V25.1428H208.697V14.2311H213V12.1968H201.984Z" fill="#363D4C"/>
<path d="M70.9509 43.1295H72.1495V40.6564H75.2656V39.6634H72.1495V37.7053H75.6621V36.6938H70.9509V43.1295Z" fill="#363D4C"/>
<path d="M85.4584 36.6938H84.26V43.1295H85.4584V36.6938Z" fill="#363D4C"/>
<path d="M99.1609 41.0591L95.6024 36.6938H94.616V43.1295H95.8051V38.7655L99.3547 43.1295H100.341V36.6938H99.1609V41.0591Z" fill="#363D4C"/>
<path d="M111.682 36.6938L108.778 43.1295H110.004L110.645 41.6401H113.873L114.512 43.1295H115.775L112.862 36.6938H111.682H111.682ZM111.049 40.7023L112.262 37.8858L113.471 40.7023H111.049Z" fill="#363D4C"/>
<path d="M128.748 41.0591L125.189 36.6938H124.203V43.1295H125.392V38.7655L128.941 43.1295H129.928V36.6938H128.748V41.0591Z" fill="#363D4C"/>
<path d="M140.645 38.2845C140.851 38.0822 141.094 37.9259 141.374 37.8155C141.653 37.7051 141.962 37.6499 142.3 37.6499C142.632 37.6499 142.942 37.7129 143.231 37.8385C143.52 37.964 143.784 38.1526 144.024 38.4039L144.799 37.6774C144.498 37.3221 144.129 37.0538 143.692 36.873C143.256 36.6923 142.773 36.6018 142.245 36.6018C141.747 36.6018 141.289 36.683 140.871 36.8455C140.453 37.008 140.088 37.2394 139.774 37.5398C139.461 37.8401 139.218 38.1895 139.046 38.5877C138.874 38.9863 138.788 39.4276 138.788 39.9117C138.788 40.3959 138.874 40.8372 139.046 41.2356C139.218 41.634 139.459 41.9834 139.77 42.2835C140.08 42.5839 140.444 42.8153 140.862 42.9778C141.28 43.14 141.738 43.2215 142.236 43.2215C142.771 43.2215 143.256 43.1296 143.693 42.9456C144.129 42.7617 144.498 42.4922 144.799 42.1366L144.024 41.4102C143.785 41.6677 143.52 41.8593 143.231 41.9848C142.942 42.1104 142.632 42.1732 142.3 42.1732C141.962 42.1732 141.653 42.118 141.374 42.0076C141.094 41.8972 140.851 41.7409 140.646 41.5386C140.439 41.3363 140.278 41.0973 140.161 40.8216C140.045 40.5457 139.986 40.2425 139.986 39.9113C139.986 39.5802 140.044 39.277 140.161 39.0011C140.278 38.7251 140.439 38.4861 140.646 38.2839L140.645 38.2845Z" fill="#363D4C"/>
<path d="M154.532 36.6938H153.334V43.1295H154.532V36.6938Z" fill="#363D4C"/>
<path d="M165.877 36.6938L162.973 43.1295H164.2L164.841 41.6401H168.069L168.708 43.1295H169.971L167.057 36.6938H165.878H165.877ZM165.245 40.7023L166.458 37.8858L167.666 40.7023H165.245Z" fill="#363D4C"/>
<path d="M179.597 36.6938H178.398V43.1295H182.971V42.1181H179.597V36.6938Z" fill="#363D4C"/>
<path d="M27.0754 0C12.1459 0 0 12.112 0 27C0 41.888 12.1459 54 27.0754 54C42.005 54 54.1509 41.8878 54.1509 27C54.1509 12.1122 42.0048 0 27.0754 0ZM1.23436 27.2845H14.8905V41.1279C14.8905 43.0918 16.4929 44.6914 18.4625 44.6934L19.803 44.6949V51.7327C9.16902 48.6176 1.36067 38.8542 1.23436 27.2845ZM21.1188 32.4435H31.9254C32.2888 32.4435 32.5834 32.1498 32.5834 31.7875C32.5834 31.4252 32.2888 31.1314 31.9254 31.1314H21.1188V27.2845H33.1427C36.2428 27.2845 39.0207 29.008 40.3927 31.7827C40.9424 32.8943 41.221 34.0911 41.221 35.3403C41.221 36.7618 40.8449 38.1587 40.1333 39.3804C38.6903 41.8574 36.0118 43.396 33.1433 43.396L21.1188 43.3839V32.4435ZM30.6547 25.9447H22.0321C21.9662 25.9447 21.9025 25.9543 21.8426 25.9724H21.1188V16.3632C21.1188 15.4638 21.8527 14.732 22.7546 14.732H38.0355C38.0544 14.7409 38.0754 14.7452 38.0952 14.7522C38.5056 15.7168 38.7329 16.7768 38.7329 17.8889C38.7329 22.3309 35.1091 25.9447 30.6547 25.9447ZM22.7546 13.4197C21.1271 13.4197 19.803 14.74 19.803 16.363V25.9722H16.2065V12.0909C16.2065 10.846 17.2222 9.8332 18.4705 9.8332H30.6547C33.4521 9.8332 35.9215 11.259 37.3718 13.4197H22.7546ZM19.803 27.2845V43.3825L18.4637 43.3811C17.2191 43.3798 16.2063 42.3691 16.2063 41.1277V27.2843H19.8028L19.803 27.2845ZM27.0754 52.7728C25.026 52.7728 23.0319 52.5323 21.1188 52.0806V44.6959L33.1427 44.7082C36.479 44.7082 39.5937 42.9193 41.2712 40.0393C42.0992 38.6178 42.5368 36.9928 42.5368 35.3403C42.5368 33.8882 42.2124 32.4961 41.5728 31.2026C40.266 28.56 37.8625 26.7374 35.0543 26.1646C38.023 24.5886 40.0487 21.4703 40.0487 17.8891C40.0487 12.7236 35.8347 8.52124 30.6547 8.52124H18.4705C16.4966 8.52124 14.8907 10.1227 14.8907 12.0911V25.9724H1.25308C1.7962 12.2359 13.1698 1.22723 27.0754 1.22723C41.3263 1.22723 52.9202 12.7888 52.9202 27C52.9202 41.2112 41.3263 52.7728 27.0754 52.7728Z" fill="#AD8024"/>
</g>
<defs>
<clipPath id="clip0_301_331">
<rect width="213" height="54" fill="white"/>
</clipPath>
</defs>
</svg>
