<svg width="186" height="47" viewBox="0 0 186 47" fill="none" xmlns="http://www.w3.org/2000/svg">
<g clip-path="url(#clip0_560_739)">
<path d="M70.6052 16.1771C70.4748 16.1178 70.3399 16.0664 70.2008 16.0223C70.6349 15.7942 70.9875 15.4832 71.2528 15.0823C71.5335 14.6584 71.6739 14.1461 71.6739 13.5451C71.6739 12.6544 71.3177 11.9434 70.6052 11.4122C69.8925 10.881 68.8614 10.6155 67.5118 10.6155H62.1837V21.8833H67.8358C69.2932 21.8833 70.392 21.6153 71.1316 21.0785C71.8708 20.5421 72.2409 19.7907 72.2409 18.8249C72.2409 18.1705 72.095 17.6232 71.8036 17.1831C71.5121 16.7431 71.1125 16.4079 70.6052 16.1771ZM67.269 12.2575C67.9922 12.2575 68.5536 12.3862 68.9533 12.6439C69.3527 12.9014 69.5525 13.2933 69.5525 13.819C69.5525 14.3342 69.3527 14.7204 68.9533 14.978C68.5536 15.2355 67.9922 15.3644 67.269 15.3644H64.2891V12.2579H67.269V12.2575ZM69.5038 19.8552C69.0827 20.1127 68.4836 20.2416 67.7062 20.2416H64.2891V16.99H67.7062C68.4836 16.99 69.0827 17.1216 69.5038 17.3845C69.9251 17.6475 70.1356 18.058 70.1356 18.6158C70.1356 19.1849 69.9251 19.5977 69.5038 19.8552Z" fill="white"/>
<path d="M85.9741 18.1168C86.692 17.7948 87.2455 17.3388 87.6341 16.7485C88.0228 16.1583 88.217 15.4501 88.217 14.6236C88.217 13.7865 88.0228 13.0678 87.6341 12.4666C87.2455 11.8658 86.692 11.4069 85.9741 11.0903C85.2561 10.7739 84.3952 10.6155 83.391 10.6155H78.7268V21.8833H80.8322V18.5996H83.391C83.5421 18.5996 83.6888 18.5948 83.8334 18.5874L86.1441 21.8833H88.4114L85.8047 18.186C85.8615 18.1632 85.919 18.1412 85.9741 18.1166V18.1168ZM85.3912 12.9737C85.8608 13.3656 86.0956 13.9154 86.0956 14.6236C86.0956 15.3318 85.8608 15.8848 85.3912 16.2817C84.9216 16.6788 84.2222 16.8772 83.2938 16.8772H80.8322V12.3862H83.2938C84.2222 12.3862 84.9216 12.5821 85.3912 12.9737Z" fill="white"/>
<path d="M104.587 12.0884C104.042 11.5681 103.396 11.1656 102.652 10.8812C101.907 10.5971 101.097 10.4546 100.222 10.4546C99.3369 10.4546 98.5218 10.5994 97.777 10.8892C97.032 11.179 96.3842 11.5842 95.8336 12.1045C95.2831 12.6252 94.8565 13.2367 94.5541 13.9395C94.2518 14.6425 94.1009 15.4125 94.1009 16.2496C94.1009 17.0759 94.252 17.8405 94.5541 18.5433C94.8565 19.2463 95.2831 19.8607 95.8336 20.3864C96.3842 20.9123 97.0347 21.3201 97.7851 21.6097C98.5353 21.8995 99.3479 22.0443 100.222 22.0443C101.097 22.0443 101.907 21.902 102.652 21.6178C103.396 21.3335 104.042 20.9283 104.587 20.4025C105.132 19.8768 105.556 19.2624 105.858 18.5594C106.16 17.8566 106.311 17.0865 106.311 16.2496C106.311 15.4126 106.16 14.6398 105.858 13.9317C105.556 13.2233 105.132 12.6093 104.587 12.0886V12.0884ZM103.89 17.843C103.691 18.326 103.413 18.7444 103.056 19.0986C102.7 19.4529 102.282 19.7265 101.801 19.9197C101.321 20.1129 100.794 20.2095 100.222 20.2095C99.65 20.2095 99.1181 20.1129 98.6269 19.9197C98.1356 19.7265 97.7118 19.4504 97.3556 19.0906C96.9995 18.7312 96.7185 18.3098 96.5134 17.8269C96.308 17.3439 96.2056 16.8184 96.2056 16.2496C96.2056 15.6699 96.308 15.1416 96.5134 14.6639C96.7185 14.1867 96.9993 13.7681 97.3556 13.4083C97.7118 13.0489 98.1356 12.7725 98.6269 12.5793C99.1181 12.3861 99.6497 12.2895 100.222 12.2895C100.795 12.2895 101.321 12.3861 101.801 12.5793C102.282 12.7725 102.703 13.046 103.064 13.4003C103.426 13.7545 103.704 14.1729 103.899 14.6559C104.093 15.1387 104.19 15.6699 104.19 16.2496C104.19 16.8292 104.09 17.3602 103.89 17.843Z" fill="white"/>
<path d="M120.95 21.8835H123.169L118.051 10.6157H115.978L110.877 21.8835H113.031L114.158 19.2758H119.828L120.95 21.8835H120.95ZM114.867 17.634L116.998 12.7029L119.121 17.634H114.867Z" fill="white"/>
<path d="M137.087 11.3159C136.153 10.8491 135.081 10.6157 133.872 10.6157H128.9V21.8835H133.872C135.081 21.8835 136.153 21.6501 137.087 21.1834C138.021 20.7166 138.747 20.0594 139.265 19.2116C139.783 18.3639 140.043 17.3765 140.043 16.2498C140.043 15.1231 139.783 14.1358 139.265 13.288C138.747 12.4404 138.021 11.783 137.087 11.3162V11.3159ZM137.411 18.2777C137.06 18.8573 136.574 19.308 135.953 19.6299C135.333 19.9519 134.595 20.1128 133.743 20.1128H131.006V12.3863H133.743C134.595 12.3863 135.333 12.5472 135.953 12.8691C136.574 13.1911 137.06 13.6366 137.411 14.2051C137.762 14.7742 137.937 15.4554 137.937 16.2494C137.937 17.0221 137.762 17.6981 137.411 18.2775V18.2777Z" fill="white"/>
<path d="M154.034 21.8835H156.14V17.5535H161.614V15.815H156.14V12.3863H162.31V10.6157H154.034V21.8835Z" fill="white"/>
<path d="M170.434 10.6157H168.328V21.8835H170.434V10.6157Z" fill="white"/>
<path d="M176.38 10.6157V12.3863H180.137V21.8835H182.243V12.3863H186V10.6157H176.38Z" fill="white"/>
<path d="M61.9571 37.5387H63.0038V35.3861H65.7249V34.5219H63.0038V32.8176H66.0711V31.9373H61.9571V37.5387Z" fill="white"/>
<path d="M74.6256 31.9373H73.5791V37.5387H74.6256V31.9373Z" fill="white"/>
<path d="M86.5912 35.7366L83.4839 31.9373H82.6224V37.5387H83.6608V33.7403L86.7605 37.5387H87.6219V31.9373H86.5912V35.7366Z" fill="white"/>
<path d="M97.525 31.9373L94.9891 37.5387H96.0598L96.6199 36.2423H99.4386L99.9966 37.5387H101.099L98.5555 31.9373H97.5252H97.525ZM96.9726 35.4261L98.0318 32.9747L99.0872 35.4261H96.9726Z" fill="white"/>
<path d="M112.428 35.7366L109.32 31.9373H108.459V37.5387H109.497V33.7403L112.597 37.5387H113.458V31.9373H112.428V35.7366Z" fill="white"/>
<path d="M122.817 33.3215C122.997 33.1454 123.209 33.0094 123.453 32.9133C123.697 32.8172 123.967 32.7692 124.262 32.7692C124.552 32.7692 124.823 32.824 125.075 32.9333C125.327 33.0426 125.558 33.2067 125.767 33.4254L126.444 32.7931C126.181 32.4839 125.859 32.2503 125.478 32.093C125.097 31.9357 124.675 31.8569 124.214 31.8569C123.779 31.8569 123.379 31.9276 123.014 32.0691C122.649 32.2105 122.33 32.4119 122.056 32.6733C121.783 32.9347 121.57 33.2388 121.42 33.5854C121.27 33.9323 121.195 34.3164 121.195 34.7378C121.195 35.1592 121.27 35.5433 121.42 35.89C121.57 36.2368 121.781 36.5409 122.052 36.8021C122.323 37.0635 122.641 37.265 123.006 37.4064C123.371 37.5476 123.771 37.6185 124.206 37.6185C124.673 37.6185 125.097 37.5385 125.478 37.3783C125.859 37.2184 126.181 36.9837 126.444 36.6743L125.768 36.042C125.558 36.2661 125.328 36.4329 125.075 36.5421C124.823 36.6514 124.552 36.7061 124.262 36.7061C123.967 36.7061 123.697 36.658 123.453 36.562C123.209 36.4659 122.997 36.3298 122.817 36.1538C122.637 35.9777 122.496 35.7697 122.394 35.5297C122.292 35.2896 122.241 35.0256 122.241 34.7375C122.241 34.4493 122.292 34.1853 122.394 33.9452C122.496 33.705 122.637 33.497 122.817 33.3209L122.817 33.3215Z" fill="white"/>
<path d="M134.944 31.9373H133.897V37.5387H134.944V31.9373Z" fill="white"/>
<path d="M144.851 31.9373L142.315 37.5387H143.385L143.946 36.2423H146.764L147.322 37.5387H148.425L145.881 31.9373H144.851H144.851ZM144.298 35.4261L145.357 32.9747L146.413 35.4261H144.298Z" fill="white"/>
<path d="M156.831 31.9373H155.784V37.5387H159.777V36.6584H156.831V31.9373Z" fill="white"/>
<path d="M23.6433 0C10.6063 0 0 10.542 0 23.5C0 36.458 10.6063 47 23.6433 47C36.6804 47 47.2867 36.4579 47.2867 23.5C47.2867 10.5421 36.6802 0 23.6433 0ZM1.07789 23.7477H13.0029V35.7965C13.0029 37.5058 14.4022 38.8981 16.1222 38.8998L17.2928 38.9011V45.0266C8.00675 42.3153 1.18819 33.8175 1.07789 23.7477ZM18.4418 28.2379H27.8786C28.1958 28.2379 28.4531 27.9822 28.4531 27.6669C28.4531 27.3515 28.1958 27.0958 27.8786 27.0958H18.4418V23.7477H28.9415C31.6487 23.7477 34.0744 25.2477 35.2725 27.6628C35.7525 28.6302 35.9958 29.6719 35.9958 30.7591C35.9958 31.9964 35.6674 33.2122 35.046 34.2755C33.7859 36.4314 31.4469 37.7706 28.9421 37.7706L18.4418 37.7601V28.2379ZM26.7689 22.5815H19.2393C19.1818 22.5815 19.1261 22.5899 19.0738 22.6056H18.4418V14.2421C18.4418 13.4593 19.0826 12.8223 19.8702 12.8223H33.2141C33.2306 12.83 33.249 12.8338 33.2662 12.8398C33.6246 13.6794 33.8231 14.602 33.8231 15.57C33.8231 19.4362 30.6586 22.5815 26.7689 22.5815ZM19.8702 11.6801C18.449 11.6801 17.2928 12.8293 17.2928 14.2419V22.6054H14.1522V10.5236C14.1522 9.44007 15.0391 8.55852 16.1292 8.55852H26.7689C29.2117 8.55852 31.368 9.79951 32.6346 11.6801H19.8702ZM17.2928 23.7477V37.7589L16.1233 37.7576C15.0364 37.7565 14.152 36.8768 14.152 35.7963V23.7475H17.2926L17.2928 23.7477ZM23.6433 45.9319C21.8537 45.9319 20.1124 45.7226 18.4418 45.3294V38.902L28.9415 38.9127C31.8549 38.9127 34.5748 37.3557 36.0396 34.849C36.7627 33.6118 37.1448 32.1974 37.1448 30.7591C37.1448 29.4953 36.8615 28.2836 36.303 27.1578C35.1619 24.8578 33.063 23.2714 30.6108 22.7729C33.2032 21.4012 34.9721 18.6871 34.9721 15.5702C34.9721 11.0742 31.2922 7.41664 26.7689 7.41664H16.1292C14.4055 7.41664 13.0031 8.81047 13.0031 10.5237V22.6056H1.09424C1.56851 10.6498 11.5004 1.06814 23.6433 1.06814C36.0878 1.06814 46.212 11.131 46.212 23.5C46.212 35.869 36.0878 45.9319 23.6433 45.9319Z" fill="#AD8024"/>
</g>
<defs>
<clipPath id="clip0_560_739">
<rect width="186" height="47" fill="white"/>
</clipPath>
</defs>
</svg>
