<svg width="73" height="67" viewBox="0 0 73 67" fill="none" xmlns="http://www.w3.org/2000/svg">
<g clip-path="url(#clip0_290_799)">
<path d="M33.5001 0C15.0279 0 0 15.0279 0 33.5C0 51.9721 15.0279 67 33.5001 67C51.9723 67 67.0002 51.9718 67.0002 33.5C67.0002 15.0282 51.972 0 33.5001 0ZM1.52726 33.8531H18.4238V51.029C18.4238 53.4658 20.4064 55.4504 22.8434 55.453L24.502 55.4547V64.1868C11.3447 60.3218 1.68355 48.2079 1.52726 33.8531ZM26.1301 40.254H39.501C39.9505 40.254 40.315 39.8895 40.315 39.44C40.315 38.9905 39.9505 38.626 39.501 38.626H26.1301V33.8531H41.0071C44.8428 33.8531 48.2799 35.9915 49.9774 39.4341C50.6576 40.8132 51.0022 42.2982 51.0022 43.8481C51.0022 45.6119 50.5369 47.345 49.6565 48.8608C47.8711 51.9342 44.5569 53.8432 41.0079 53.8432L26.1301 53.8282V40.254ZM37.9287 32.1906H27.26C27.1786 32.1906 27.0996 32.2026 27.0256 32.225H26.1301V20.3025C26.1301 19.1866 27.038 18.2787 28.154 18.2787H47.0609C47.0843 18.2896 47.1103 18.2949 47.1347 18.3036C47.6425 19.5005 47.9238 20.8157 47.9238 22.1955C47.9238 27.7069 43.44 32.1906 37.9287 32.1906ZM28.154 16.6503C26.1403 16.6503 24.502 18.2886 24.502 20.3023V32.2247H20.0521V15.0017C20.0521 13.4571 21.3088 12.2004 22.8534 12.2004H37.9287C41.3899 12.2004 44.4452 13.9695 46.2397 16.6503H28.154ZM24.502 33.8531V53.8264L22.845 53.8247C21.305 53.8231 20.0519 52.569 20.0519 51.0288V33.8528H24.5018L24.502 33.8531ZM33.5001 65.4773C30.9644 65.4773 28.4971 65.179 26.1301 64.6185V55.456L41.0071 55.4713C45.135 55.4713 48.9888 53.2517 51.0643 49.6784C52.0889 47.9147 52.6303 45.8985 52.6303 43.8481C52.6303 42.0465 52.2289 40.3192 51.4375 38.7143C49.8206 35.4355 46.8468 33.1742 43.3723 32.4635C47.0454 30.5081 49.5518 26.6391 49.5518 22.1958C49.5518 15.7867 44.3378 10.5727 37.9287 10.5727H22.8534C20.411 10.5727 18.4241 12.5596 18.4241 15.0019V32.225H1.55042C2.22241 15.1816 16.2948 1.52267 33.5001 1.52267C51.1325 1.52267 65.4776 15.8676 65.4776 33.5C65.4776 51.1324 51.1325 65.4773 33.5001 65.4773Z" fill="#AD8024"/>
</g>
<defs>
<clipPath id="clip0_290_799">
<rect width="73" height="67" fill="white"/>
</clipPath>
</defs>
</svg>
