<?xml version="1.0" encoding="utf-8"?>
<!-- Generator: Adobe Illustrator 27.0.0, SVG Export Plug-In . SVG Version: 6.00 Build 0)  -->
<svg version="1.1" id="Layer_1" xmlns="http://www.w3.org/2000/svg" xmlns:xlink="http://www.w3.org/1999/xlink" x="0px" y="0px"
	 viewBox="0 0 349 349" style="enable-background:new 0 0 349 349;" xml:space="preserve">
<style type="text/css">
	.st0{fill:none;stroke:#57616E;stroke-linecap:round;stroke-linejoin:round;}
	.st1{fill:#AD8024;}
	.st2{fill:#424880;}
</style>
<path class="st0" d="M303.4,291.7c28-30.9,45.1-72,45.1-117.2c0-96.1-77.5-174-173.2-174c-52,0-98.6,23-130.3,59.4"/>
<path class="st0" d="M57.2,301.8c30.9,29,72.5,46.8,118.1,46.8c36.1,0,69.7-11.1,97.4-30.1"/>
<path class="st0" d="M25.6,87.1c-14.9,25.7-23.4,55.5-23.4,87.4c0,38,12.2,73.2,32.8,101.9"/>
<path class="st0" d="M219.2,56.7c-13.6-5.1-28.4-7.9-43.8-7.9c-69.4,0-125.7,56.3-125.7,125.7c0,69.4,56.3,125.7,125.7,125.7
	c68.4,0,124.1-54.7,125.6-122.8"/>
<path class="st0" d="M297.8,146c-5.4-23.3-17.3-44.1-33.6-60.4"/>
<path class="st0" d="M116.7,224.9c14.2,16.5,35.2,26.9,58.7,26.9c42.7,0,77.3-34.6,77.3-77.3s-34.6-77.3-77.3-77.3
	S98,131.8,98,174.5c0,5.2,0.5,10.2,1.5,15.1"/>
<path class="st1" d="M175.2,140.2c-17.8,0-32.2,14.5-32.2,32.2s14.5,32.2,32.2,32.2s32.2-14.5,32.2-32.2S192.9,140.2,175.2,140.2z
	 M144.4,172.7h16.3v16.5c0,2.3,1.9,4.3,4.3,4.3l1.6,0v8.4C153.8,198.2,144.5,186.5,144.4,172.7z M168.1,178.9h12.9
	c0.4,0,0.8-0.4,0.8-0.8c0-0.4-0.4-0.8-0.8-0.8h-12.9v-4.6h14.3c3.7,0,7,2.1,8.6,5.4c0.7,1.3,1,2.8,1,4.2c0,1.7-0.4,3.4-1.3,4.8
	c-1.7,3-4.9,4.8-8.3,4.8l-14.3,0L168.1,178.9L168.1,178.9z M179.4,171.1h-10.3c-0.1,0-0.2,0-0.2,0h-0.9v-11.5c0-1.1,0.9-1.9,1.9-1.9
	h18.2c0,0,0,0,0.1,0c0.5,1.2,0.8,2.4,0.8,3.7C189,166.8,184.7,171.1,179.4,171.1z M170,156.2c-1.9,0-3.5,1.6-3.5,3.5v11.5h-4.3
	v-16.6c0-1.5,1.2-2.7,2.7-2.7h14.5c3.3,0,6.3,1.7,8,4.3H170L170,156.2z M166.5,172.7v19.2l-1.6,0c-1.5,0-2.7-1.2-2.7-2.7v-16.5
	H166.5z M175.1,203.1c-2.4,0-4.8-0.3-7.1-0.8v-8.8l14.3,0c4,0,7.7-2.1,9.7-5.6c1-1.7,1.5-3.6,1.5-5.6c0-1.7-0.4-3.4-1.1-4.9
	c-1.6-3.2-4.4-5.3-7.8-6c3.5-1.9,5.9-5.6,5.9-9.9c0-6.2-5-11.2-11.2-11.2h-14.5c-2.3,0-4.3,1.9-4.3,4.3v16.6h-16.2
	c0.6-16.4,14.2-29.5,30.7-29.5c17,0,30.8,13.8,30.8,30.8S192.1,203.1,175.1,203.1z"/>
<path class="st2" d="M219.6,76.8h1.4V68h3.2v-1.2h-7.7V68h3.2V76.8z M229.1,69.6c-1.2,0-1.9,0.6-2.4,1.3h0v-4.8h-1.3v10.6h1.3v-3.7
	c0-1.1,0.7-2.4,2.1-2.4c1.1,0,1.6,0.7,1.6,1.7v4.3h1.3v-4.3C231.8,70.7,230.8,69.6,229.1,69.6z M240.1,73.6c0,0,0.1-0.3,0.1-0.7
	c0-1.9-1.1-3.3-3.2-3.3c-2.1,0-3.5,1.5-3.5,3.6c0,2.2,1.4,3.6,3.7,3.6c1.2,0,2.3-0.4,2.9-1.3l-0.8-0.7c-0.3,0.4-0.9,0.9-2,0.9
	c-1.4,0-2.3-0.9-2.4-2.2H240.1z M236.9,70.7c1.1,0,1.9,0.8,1.9,1.9h-4C235,71.5,235.8,70.7,236.9,70.7z M244.9,69.6
	c-1,0-1.6,0.8-1.9,1.7h-0.1c0-0.3-0.1-1.1-0.2-1.6l-0.9,0v7.1h1.3v-3.7c0-1.5,0.9-2.2,1.7-2.2c0.3,0,0.5,0.1,0.7,0.2l0.3-1.3
	C245.6,69.6,245.2,69.6,244.9,69.6z M253.3,75.6c-0.1,0-0.2,0-0.3,0c-0.3,0-0.4-0.1-0.4-0.5v-2.9c0-1.6-1.1-2.7-3-2.7
	c-1.8,0-2.9,0.9-2.9,2.2c0,0.3,0.1,0.6,0.1,0.6l1.2-0.2c0-0.1-0.1-0.2-0.1-0.4c0-0.7,0.6-1.1,1.6-1.1c1.2,0,1.8,0.6,1.8,1.6v0.5H251
	c-3.1,0-4.6,0.6-4.6,2.2c0,1.2,0.8,2,2.4,2c1.7,0,2.3-0.8,2.5-1.2h0v0c0,0.8,0.5,1.2,1.3,1.2c0.4,0,0.7-0.1,0.7-0.1L253.3,75.6z
	 M249.1,75.7c-0.9,0-1.3-0.3-1.3-0.9c0-0.8,0.8-1.2,3.2-1.2h0.2v0.7C251.3,75,250.5,75.7,249.1,75.7z M258.7,69.6
	c-1.5,0-2.3,0.8-2.7,1.7h0c0-0.3-0.1-1.2-0.2-1.6l-0.9,0v10.1h1.3v-4.2c0.5,0.7,1.3,1.3,2.4,1.3c2.1,0,3.4-1.4,3.4-3.6
	C262.1,71,260.7,69.6,258.7,69.6z M258.5,75.7c-1.6,0-2.3-1.3-2.3-2.4v-0.3c0-1,0.8-2.4,2.2-2.4c1.4,0,2.3,1,2.3,2.5
	C260.7,74.7,259.9,75.7,258.5,75.7z M266.7,78l3.4-8.3h-1.3l-2,5c-0.1,0.3-0.2,0.5-0.2,0.8h0c-0.1-0.3-0.1-0.4-0.2-0.8l-2-5h-1.5
	l3,7.3l-0.3,0.7c-0.2,0.6-0.6,1.1-1.3,1.1c-0.4,0-0.8-0.2-0.8-0.2l-0.2,1.1c0,0,0.4,0.2,1.1,0.2C265.6,79.9,266.2,79.1,266.7,78z"/>
<path class="st2" d="M84.7,202.6l-1.9,7.2l-0.3,1.2h0c-0.1-0.4-0.2-0.8-0.3-1.2l-2-7.2H79l-2,7.2c-0.1,0.4-0.2,0.8-0.3,1.2h0
	l-0.3-1.2l-1.9-7.2h-1.4l2.8,9.9h1.4l1.9-6.6c0.2-0.5,0.3-1.2,0.3-1.4h0c0,0.2,0.2,0.9,0.3,1.4l1.8,6.6h1.5l2.8-9.9H84.7z
	 M93.2,209.3c0,0,0.1-0.3,0.1-0.7c0-1.9-1.1-3.3-3.2-3.3c-2.1,0-3.5,1.5-3.5,3.6c0,2.2,1.4,3.6,3.7,3.6c1.2,0,2.3-0.4,2.9-1.3
	l-0.8-0.7c-0.3,0.4-0.9,0.9-2,0.9c-1.4,0-2.3-0.9-2.4-2.2H93.2z M90,206.5c1.1,0,1.9,0.8,1.9,1.9h-4C88.1,207.2,88.9,206.5,90,206.5
	z M94.9,212.5h1.3v-10.6h-1.3V212.5z M98.4,212.5h1.3v-10.6h-1.3V212.5z M105.5,205.3c-1.3,0-2.1,0.8-2.5,1.7h0
	c0-0.3-0.1-1.1-0.2-1.7l-0.9,0v7.1h1.3v-3.7c0-1,0.7-2.4,2.1-2.4c1.1,0,1.7,0.7,1.7,1.7v4.3h1.3v-4.3
	C108.2,206.5,107.2,205.3,105.5,205.3z M116.5,209.3c0,0,0.1-0.3,0.1-0.7c0-1.9-1.1-3.3-3.2-3.3c-2.1,0-3.5,1.5-3.5,3.6
	c0,2.2,1.4,3.6,3.7,3.6c1.2,0,2.3-0.4,2.9-1.3l-0.8-0.7c-0.3,0.4-0.9,0.9-2,0.9c-1.4,0-2.3-0.9-2.4-2.2H116.5z M113.4,206.5
	c1.1,0,1.9,0.8,1.9,1.9h-4C111.4,207.2,112.2,206.5,113.4,206.5z M122.2,208l1.2-0.1c0,0,0.1-0.2,0.1-0.5c0-1.2-1.1-2-2.8-2
	c-1.7,0-2.8,0.9-2.8,2.1c0,2.6,4.3,1.7,4.3,3.1c0,0.5-0.5,0.9-1.6,0.9c-1.1,0-2-0.6-2.3-0.9l-0.8,0.9c0.4,0.3,1.3,1.1,3.1,1.1
	c1.7,0,2.9-0.7,2.9-2c0-2.7-4.3-1.5-4.3-3.1c0-0.6,0.5-1,1.4-1c0.9,0,1.6,0.4,1.6,1.2C122.3,207.7,122.3,207.9,122.2,208z
	 M129.3,208l1.2-0.1c0,0,0.1-0.2,0.1-0.5c0-1.2-1.1-2-2.8-2c-1.7,0-2.8,0.9-2.8,2.1c0,2.6,4.3,1.7,4.3,3.1c0,0.5-0.5,0.9-1.6,0.9
	c-1.1,0-2-0.6-2.3-0.9l-0.8,0.9c0.4,0.3,1.3,1.1,3.1,1.1c1.7,0,2.9-0.7,2.9-2c0-2.7-4.3-1.5-4.3-3.1c0-0.6,0.5-1,1.4-1
	c0.9,0,1.6,0.4,1.6,1.2C129.3,207.7,129.3,207.9,129.3,208z"/>
<path class="st2" d="M278.1,156.3v-1.2h-6v9.9h1.4v-4.4h3.9v-1.2h-3.9v-3.2H278.1z M281.2,155.7c0-0.5-0.4-0.9-0.9-0.9
	c-0.5,0-0.9,0.4-0.9,0.9c0,0.5,0.4,0.9,0.9,0.9C280.8,156.6,281.2,156.2,281.2,155.7z M279.6,165.1h1.3v-7.1l-1.3,0V165.1z
	 M287.5,163.6c0,0-0.5,0.4-1.3,0.4c-1,0-1.4-0.6-1.4-1.7v-3.3h2.7V158h-2.7v-2.2l-1.3,0.1v2.1h-1.1v1.1h1.1v3.3
	c0,1.8,0.7,2.8,2.6,2.8c1.2,0,1.9-0.5,1.9-0.5L287.5,163.6z M292.8,157.9c-1.4,0-2.1,0.8-2.5,1.7h0c0-0.3-0.1-1.1-0.2-1.6l-0.9,0
	v7.1h1.3v-3.7c0-1,0.7-2.4,2.1-2.4c1.1,0,1.6,0.7,1.6,1.7v4.3h1.3v-4.3C295.5,159,294.5,157.9,292.8,157.9z M303.8,161.9
	c0,0,0.1-0.3,0.1-0.7c0-1.9-1.1-3.3-3.2-3.3c-2.1,0-3.5,1.5-3.5,3.6c0,2.2,1.4,3.6,3.7,3.6c1.2,0,2.3-0.4,2.9-1.3l-0.8-0.7
	c-0.3,0.4-0.9,0.9-2,0.9c-1.4,0-2.3-0.9-2.4-2.2H303.8z M300.7,159c1.1,0,1.9,0.8,1.9,1.9h-4C298.7,159.8,299.5,159,300.7,159z
	 M309.5,160.5l1.2-0.1c0,0,0.1-0.2,0.1-0.5c0-1.2-1.1-2-2.8-2c-1.7,0-2.8,0.9-2.8,2.1c0,2.6,4.3,1.7,4.3,3.2c0,0.5-0.5,0.9-1.6,0.9
	c-1.1,0-2-0.6-2.3-0.9l-0.8,0.9c0.4,0.3,1.3,1.1,3.1,1.1c1.7,0,2.9-0.7,2.9-2c0-2.7-4.3-1.5-4.3-3.2c0-0.6,0.5-1,1.4-1
	c0.9,0,1.6,0.4,1.6,1.2C309.6,160.3,309.6,160.4,309.5,160.5z M316.6,160.5l1.2-0.1c0,0,0.1-0.2,0.1-0.5c0-1.2-1.1-2-2.8-2
	c-1.7,0-2.8,0.9-2.8,2.1c0,2.6,4.3,1.7,4.3,3.2c0,0.5-0.5,0.9-1.6,0.9c-1.1,0-2-0.6-2.3-0.9l-0.8,0.9c0.4,0.3,1.3,1.1,3.1,1.1
	c1.7,0,2.9-0.7,2.9-2c0-2.7-4.3-1.5-4.3-3.2c0-0.6,0.5-1,1.4-1c0.9,0,1.6,0.4,1.6,1.2C316.6,160.3,316.6,160.4,316.6,160.5z"/>
<path class="st2" d="M22.1,67.5v4.2h-5.3v-4.2h-1.4v9.9h1.4v-4.6h5.3v4.6h1.4v-9.9H22.1z M32,74.2c0,0,0.1-0.3,0.1-0.7
	c0-1.9-1.1-3.3-3.2-3.3c-2.1,0-3.5,1.5-3.5,3.6c0,2.2,1.4,3.6,3.7,3.6c1.2,0,2.3-0.4,2.9-1.3l-0.8-0.7c-0.3,0.4-0.9,0.9-2,0.9
	c-1.4,0-2.3-0.9-2.4-2.2H32z M28.9,71.3c1.1,0,1.9,0.8,1.9,1.9h-4C26.9,72.1,27.7,71.3,28.9,71.3z M40.1,76.2c-0.1,0-0.2,0-0.3,0
	c-0.3,0-0.4-0.2-0.4-0.5v-2.9c0-1.6-1.1-2.7-3-2.7c-1.8,0-2.9,0.9-2.9,2.2c0,0.3,0.1,0.6,0.1,0.6l1.2-0.2c0-0.1-0.1-0.2-0.1-0.4
	c0-0.7,0.6-1.1,1.6-1.1c1.2,0,1.8,0.6,1.8,1.6v0.4h-0.2c-3.1,0-4.6,0.6-4.6,2.2c0,1.2,0.8,2,2.4,2c1.6,0,2.3-0.8,2.5-1.2h0v0
	c0,0.8,0.5,1.2,1.3,1.2c0.4,0,0.7-0.1,0.7-0.1L40.1,76.2z M36,76.3c-0.9,0-1.3-0.3-1.3-0.9c0-0.8,0.8-1.2,3.2-1.2h0.2v0.7
	C38.1,75.6,37.4,76.3,36,76.3z M41.8,77.4h1.3V66.8h-1.3V77.4z M49.7,75.9c0,0-0.5,0.4-1.3,0.4c-1,0-1.4-0.6-1.4-1.7v-3.3h2.7v-1.1
	H47v-2.2l-1.3,0.1v2.1h-1.1v1.1h1.1v3.3c0,1.8,0.7,2.8,2.6,2.8c1.2,0,1.9-0.5,1.9-0.5L49.7,75.9z M55,70.2c-1.2,0-1.9,0.6-2.4,1.3h0
	v-4.8h-1.3v10.6h1.3v-3.7c0-1.1,0.7-2.4,2.1-2.4c1.1,0,1.7,0.7,1.7,1.7v4.3h1.3V73C57.7,71.3,56.7,70.2,55,70.2z"/>
<g>
	<path class="st2" d="M244.4,301.9c0,2.1-1.3,3.4-3.7,3.4h-1.9v3.2h-1.4v-9.9h3.1C243,298.6,244.4,299.8,244.4,301.9z M243,301.9
		c0-1.4-0.9-2.2-2.6-2.2h-1.7v4.4h1.7C242.1,304.2,243,303.4,243,301.9z"/>
	<path class="st2" d="M246.8,305.3c0.1,1.3,1,2.2,2.4,2.2c1.1,0,1.7-0.5,2-0.9l0.8,0.7c-0.7,0.9-1.7,1.3-2.9,1.3
		c-2.3,0-3.7-1.5-3.7-3.6c0-2.1,1.4-3.6,3.5-3.6c2.1,0,3.2,1.5,3.2,3.3c0,0.4-0.1,0.7-0.1,0.7H246.8z M246.8,304.4h4
		c0-1.2-0.8-1.9-1.9-1.9C247.8,302.4,247,303.2,246.8,304.4z"/>
	<path class="st2" d="M257.8,301.5l-0.3,1.3c-0.1-0.1-0.4-0.2-0.7-0.2c-0.8,0-1.7,0.7-1.7,2.2v3.7h-1.3v-7.1l0.9,0
		c0.1,0.5,0.2,1.3,0.2,1.7h0.1c0.3-0.9,0.9-1.7,1.9-1.7C257.2,301.3,257.6,301.4,257.8,301.5z"/>
	<path class="st2" d="M260.9,300.5v0.9h2.4v1.1h-2.4v6h-1.3v-6h-1.1v-1.1h1.1v-0.9c0-1.6,1-2.7,2.6-2.7c0.8,0,1.4,0.3,1.6,0.4
		l-0.5,1c-0.2-0.1-0.5-0.3-1-0.3C261.4,298.9,260.9,299.6,260.9,300.5z"/>
	<path class="st2" d="M271.1,305c0,2.1-1.5,3.6-3.6,3.6c-2.2,0-3.6-1.5-3.6-3.6s1.5-3.7,3.6-3.7C269.7,301.3,271.1,302.8,271.1,305z
		 M269.8,305c0-1.5-0.9-2.5-2.3-2.5c-1.4,0-2.3,1.1-2.3,2.5s0.9,2.5,2.3,2.5C268.8,307.5,269.8,306.5,269.8,305z"/>
	<path class="st2" d="M276.8,301.5l-0.3,1.3c-0.2-0.1-0.4-0.2-0.7-0.2c-0.8,0-1.7,0.7-1.7,2.2v3.7h-1.3v-7.1l0.9,0
		c0.1,0.5,0.2,1.3,0.2,1.7h0.1c0.3-0.9,0.9-1.7,1.9-1.7C276.2,301.3,276.5,301.4,276.8,301.5z"/>
	<path class="st2" d="M289.2,304.2v4.3h-1.3v-4.3c0-1-0.6-1.7-1.6-1.7c-1.3,0-2,1.3-2,2.3v3.7h-1.3v-4.3c0-1-0.6-1.7-1.7-1.7
		c-1.3,0-2,1.3-2,2.3v3.7H278v-7.1l0.9,0c0.1,0.5,0.2,1.3,0.2,1.7c0.4-0.9,1.1-1.7,2.4-1.7c1.3,0,2.2,0.6,2.6,1.6
		c0.4-0.9,1.2-1.6,2.4-1.6C288.2,301.4,289.2,302.5,289.2,304.2z"/>
	<path class="st2" d="M297.7,308.5c0,0-0.3,0.1-0.7,0.1c-0.7,0-1.3-0.3-1.3-1.2v0h0c-0.2,0.4-0.8,1.2-2.5,1.2c-1.6,0-2.4-0.8-2.4-2
		c0-1.5,1.5-2.2,4.6-2.2h0.2V304c0-1-0.6-1.6-1.8-1.6c-1,0-1.6,0.4-1.6,1.1c0,0.2,0,0.3,0.1,0.4l-1.2,0.2c0,0-0.1-0.3-0.1-0.6
		c0-1.3,1.1-2.2,2.9-2.2c1.9,0,3,1,3,2.7v2.9c0,0.4,0.1,0.5,0.4,0.5c0.1,0,0.2,0,0.3,0L297.7,308.5z M295.7,306.1v-0.7h-0.2
		c-2.4,0-3.2,0.4-3.2,1.2c0,0.6,0.4,0.9,1.3,0.9C294.9,307.5,295.7,306.7,295.7,306.1z"/>
	<path class="st2" d="M305.7,304.2v4.3h-1.3v-4.3c0-1-0.6-1.7-1.7-1.7c-1.5,0-2.1,1.3-2.1,2.4v3.7h-1.3v-7.1l0.9,0
		c0.1,0.5,0.2,1.3,0.2,1.7h0c0.4-0.9,1.2-1.7,2.5-1.7C304.6,301.3,305.7,302.5,305.7,304.2z"/>
	<path class="st2" d="M313.8,303.7c0,0.3,0,0.5,0,0.5l-1.2,0.1c0-0.1,0-0.2,0-0.4c0-0.9-0.6-1.5-1.7-1.5c-1.3,0-2.2,1-2.2,2.5
		c0,1.5,0.9,2.5,2.4,2.5c1.3,0,1.9-0.6,2.2-0.9l0.8,0.8c-0.7,0.8-1.7,1.2-3,1.2c-2.2,0-3.7-1.5-3.7-3.6c0-2.2,1.5-3.7,3.6-3.7
		C312.7,301.3,313.8,302.4,313.8,303.7z"/>
	<path class="st2" d="M316.5,305.3c0.1,1.3,1,2.2,2.4,2.2c1.1,0,1.7-0.5,2-0.9l0.8,0.7c-0.7,0.9-1.7,1.3-2.9,1.3
		c-2.3,0-3.7-1.5-3.7-3.6c0-2.1,1.4-3.6,3.5-3.6c2.1,0,3.2,1.5,3.2,3.3c0,0.4-0.1,0.7-0.1,0.7H316.5z M316.5,304.4h4
		c0-1.2-0.8-1.9-1.9-1.9C317.5,302.4,316.7,303.2,316.5,304.4z"/>
</g>
<g>
	<path class="st2" d="M24.7,292.9c0,0-0.4,0.1-0.8,0.1c-2.8,0-2-3.9-4.5-3.9h-0.8v3.8h-1.4V283h3c2.3,0,3.6,0.9,3.6,3.1
		c0,1.4-0.9,2.3-2.2,2.8c1.3,0.7,1.3,3,2.7,3c0.2,0,0.3,0,0.3,0L24.7,292.9z M20,288c1.4,0,2.4-0.7,2.4-2c0-1.3-0.8-1.9-2.3-1.9
		h-1.6v3.9H20z"/>
	<path class="st2" d="M26.8,289.7c0.1,1.3,1,2.2,2.4,2.2c1.1,0,1.7-0.5,2-0.9l0.8,0.7c-0.7,0.9-1.7,1.3-2.9,1.3
		c-2.3,0-3.7-1.5-3.7-3.6c0-2.1,1.4-3.6,3.5-3.6c2.1,0,3.2,1.5,3.2,3.3c0,0.4-0.1,0.7-0.1,0.7H26.8z M26.8,288.8h4
		c0-1.2-0.8-1.9-1.9-1.9C27.8,286.8,27,287.6,26.8,288.8z"/>
	<path class="st2" d="M39.9,288.1c0,0.3,0,0.5,0,0.5l-1.2,0.1c0-0.1,0-0.2,0-0.4c0-0.9-0.6-1.5-1.7-1.5c-1.3,0-2.2,1-2.2,2.5
		c0,1.5,0.9,2.5,2.4,2.5c1.3,0,1.9-0.6,2.2-0.9l0.8,0.8c-0.7,0.8-1.7,1.2-3,1.2c-2.2,0-3.7-1.5-3.7-3.6c0-2.2,1.5-3.7,3.6-3.7
		C38.7,285.7,39.9,286.8,39.9,288.1z"/>
	<path class="st2" d="M48.4,289.4c0,2.1-1.5,3.6-3.6,3.6c-2.2,0-3.6-1.5-3.6-3.6s1.5-3.7,3.6-3.7C47,285.7,48.4,287.2,48.4,289.4z
		 M47.1,289.4c0-1.5-0.9-2.5-2.3-2.5s-2.3,1.1-2.3,2.5s0.9,2.5,2.3,2.5S47.1,290.8,47.1,289.4z"/>
	<path class="st2" d="M56.3,285.8l-2.9,7.1H52l-2.9-7.1h1.5l2,5c0.2,0.4,0.2,0.5,0.2,0.8h0c0.1-0.3,0.1-0.5,0.2-0.8l2-5H56.3z"/>
	<path class="st2" d="M58.3,289.7c0.1,1.3,1,2.2,2.4,2.2c1.1,0,1.7-0.5,2-0.9l0.8,0.7c-0.7,0.9-1.7,1.3-2.9,1.3
		c-2.3,0-3.7-1.5-3.7-3.6c0-2.1,1.4-3.6,3.5-3.6c2.1,0,3.2,1.5,3.2,3.3c0,0.4-0.1,0.7-0.1,0.7H58.3z M58.4,288.8h4
		c0-1.2-0.8-1.9-1.9-1.9C59.3,286.8,58.6,287.6,58.4,288.8z"/>
	<path class="st2" d="M69.4,285.8l-0.3,1.3c-0.1-0.1-0.4-0.2-0.7-0.2c-0.8,0-1.7,0.7-1.7,2.2v3.7h-1.3v-7.1l0.9,0
		c0.1,0.5,0.2,1.3,0.2,1.7h0.1c0.3-0.9,0.9-1.7,1.9-1.7C68.8,285.7,69.1,285.8,69.4,285.8z"/>
	<path class="st2" d="M71.3,296c-0.7,0-1.1-0.2-1.1-0.2l0.2-1.1c0,0,0.3,0.2,0.8,0.2c0.7,0,1-0.5,1.3-1.1l0.3-0.7l-3-7.3h1.5l2,5
		c0.2,0.4,0.2,0.5,0.2,0.8h0c0.1-0.3,0.1-0.5,0.2-0.8l2-5H77l-3.4,8.3C73.3,295.2,72.6,296,71.3,296z"/>
</g>
</svg>
