<svg width="435" height="349" viewBox="0 0 435 349" fill="none" xmlns="http://www.w3.org/2000/svg">
<g clip-path="url(#clip0_163_534)">
<path d="M254.368 348.534C350.03 348.534 427.579 270.624 427.579 174.517C427.579 78.4101 350.03 0.5 254.368 0.5C158.706 0.5 81.1572 78.4101 81.1572 174.517C81.1572 270.624 158.706 348.534 254.368 348.534Z" stroke="#57616E"/>
<path d="M254.368 300.196C323.779 300.196 380.047 243.927 380.047 174.517C380.047 105.106 323.779 48.8379 254.368 48.8379C184.957 48.8379 128.689 105.106 128.689 174.517C128.689 243.927 184.957 300.196 254.368 300.196Z" stroke="#57616E"/>
<path d="M254.368 251.858C297.082 251.858 331.709 217.231 331.709 174.517C331.709 131.803 297.082 97.1758 254.368 97.1758C211.654 97.1758 177.027 131.803 177.027 174.517C177.027 217.231 211.654 251.858 254.368 251.858Z" stroke="#57616E"/>
<path d="M107.887 210.367H180.394V246.62H107.887V210.367Z" fill="#F3F7FC"/>
<path d="M325.505 286.496H434.588V320.366H325.505V286.496Z" fill="#F3F7FC"/>
<path d="M254.151 140.162C236.382 140.162 221.926 154.618 221.926 172.387C221.926 190.156 236.382 204.612 254.151 204.612C271.92 204.612 286.376 190.156 286.376 172.387C286.376 154.618 271.92 140.162 254.151 140.162ZM223.395 172.727H239.649V189.249C239.649 191.593 241.556 193.502 243.9 193.504L245.495 193.506V201.906C232.838 198.189 223.545 186.535 223.395 172.727ZM247.061 178.884H259.923C260.355 178.884 260.706 178.533 260.706 178.101C260.706 177.669 260.355 177.318 259.923 177.318H247.061V172.727H261.372C265.062 172.727 268.368 174.784 270.001 178.096C270.655 179.423 270.987 180.851 270.987 182.342C270.987 184.039 270.539 185.706 269.693 187.164C267.976 190.12 264.788 191.957 261.374 191.957L247.062 191.943V178.886L247.061 178.884ZM258.41 171.128H248.148C248.07 171.128 247.994 171.14 247.922 171.161H247.061V159.692C247.061 158.618 247.934 157.745 249.008 157.745H267.195C267.217 157.755 267.242 157.761 267.266 157.769C267.755 158.92 268.025 160.186 268.025 161.513C268.025 166.815 263.712 171.128 258.41 171.128ZM249.007 156.179C247.07 156.179 245.494 157.755 245.494 159.692V171.161H241.213V154.593C241.213 153.107 242.422 151.898 243.908 151.898H258.41C261.74 151.898 264.678 153.6 266.405 156.179H249.008H249.007ZM245.494 172.727V191.94L243.9 191.938C242.419 191.937 241.213 190.73 241.213 189.249V172.727H245.494ZM254.15 203.148C251.711 203.148 249.337 202.861 247.061 202.322V193.508L261.372 193.523C265.343 193.523 269.05 191.388 271.046 187.951C272.031 186.254 272.552 184.315 272.552 182.343C272.552 180.61 272.166 178.948 271.405 177.404C269.85 174.25 266.989 172.075 263.647 171.391C267.18 169.51 269.591 165.788 269.591 161.514C269.591 155.349 264.575 150.333 258.41 150.333H243.908C241.559 150.333 239.647 152.244 239.647 154.594V171.162H223.416C224.062 154.767 237.599 141.628 254.15 141.628C271.111 141.628 284.91 155.427 284.91 172.388C284.91 189.349 271.111 203.148 254.15 203.148Z" fill="#AD8024"/>
<path d="M350.534 306.561H351.899V297.816H355.079V296.661H347.354V297.816H350.534V306.561ZM360.014 299.391C358.829 299.391 358.079 299.991 357.659 300.726H357.629V295.971H356.324V306.561H357.659V302.871C357.659 301.806 358.319 300.501 359.789 300.501C360.854 300.501 361.439 301.191 361.439 302.226V306.561H362.774V302.226C362.774 300.531 361.709 299.391 360.014 299.391ZM371.061 303.381C371.061 303.381 371.121 303.126 371.121 302.706C371.121 300.846 369.981 299.391 367.896 299.391C365.751 299.391 364.386 300.921 364.386 303.036C364.386 305.196 365.811 306.651 368.076 306.651C369.291 306.651 370.341 306.216 371.001 305.346L370.191 304.611C369.876 305.031 369.261 305.541 368.181 305.541C366.771 305.541 365.886 304.686 365.751 303.381H371.061ZM367.896 300.501C369.021 300.501 369.756 301.266 369.771 302.436H365.781C365.976 301.296 366.756 300.501 367.896 300.501ZM375.865 299.391C374.815 299.391 374.215 300.156 373.945 301.086H373.885C373.885 300.771 373.825 299.976 373.705 299.436L372.775 299.481V306.561H374.095V302.856C374.095 301.386 374.995 300.681 375.79 300.681C376.09 300.681 376.3 300.756 376.45 300.846L376.78 299.511C376.51 299.436 376.18 299.391 375.865 299.391ZM384.219 305.436C384.159 305.451 384.054 305.466 383.964 305.466C383.634 305.466 383.529 305.316 383.529 304.926V302.061C383.529 300.426 382.404 299.391 380.484 299.391C378.684 299.391 377.574 300.306 377.574 301.596C377.574 301.941 377.664 302.211 377.664 302.211L378.909 302.001C378.864 301.896 378.834 301.806 378.834 301.641C378.834 300.906 379.449 300.501 380.454 300.501C381.624 300.501 382.209 301.116 382.209 302.076V302.526H381.999C378.879 302.526 377.409 303.141 377.409 304.686C377.409 305.841 378.249 306.651 379.809 306.651C381.459 306.651 382.074 305.811 382.269 305.451H382.299V305.466C382.299 306.291 382.839 306.636 383.574 306.636C383.949 306.636 384.294 306.546 384.294 306.546L384.219 305.436ZM380.079 305.541C379.179 305.541 378.759 305.211 378.759 304.656C378.759 303.876 379.584 303.441 381.999 303.441H382.209V304.116C382.209 304.776 381.459 305.541 380.079 305.541ZM389.636 299.391C388.181 299.391 387.341 300.171 386.951 301.086H386.936C386.951 300.801 386.861 299.916 386.756 299.436L385.826 299.481V309.621H387.146V305.391C387.626 306.126 388.451 306.651 389.561 306.651C391.631 306.651 393.011 305.211 393.011 303.036C393.011 300.846 391.631 299.391 389.636 299.391ZM389.486 305.541C387.851 305.541 387.146 304.236 387.146 303.171V302.886C387.146 301.836 387.896 300.501 389.396 300.501C390.791 300.501 391.661 301.521 391.661 303.036C391.661 304.536 390.806 305.541 389.486 305.541ZM397.604 307.821L400.964 299.481H399.614L397.634 304.431C397.514 304.746 397.454 304.881 397.394 305.211H397.379C397.319 304.911 397.289 304.791 397.139 304.431L395.189 299.481H393.704L396.704 306.741L396.434 307.446C396.194 308.076 395.879 308.556 395.144 308.556C394.709 308.556 394.379 308.376 394.379 308.376L394.139 309.471C394.139 309.471 394.559 309.696 395.234 309.696C396.539 309.696 397.199 308.871 397.604 307.821Z" fill="#424880"/>
<path d="M120.931 223.347L119.071 230.517L118.786 231.702H118.756C118.666 231.312 118.591 230.952 118.471 230.517L116.446 223.347H115.171L113.146 230.517C113.026 230.922 112.951 231.312 112.861 231.702H112.831L112.546 230.517L110.686 223.347H109.276L112.096 233.247H113.536L115.456 226.692C115.606 226.182 115.756 225.492 115.786 225.267H115.816C115.846 225.492 115.981 226.182 116.131 226.692L117.961 233.247H119.461L122.296 223.347H120.931ZM129.377 230.067C129.377 230.067 129.437 229.812 129.437 229.392C129.437 227.532 128.297 226.077 126.212 226.077C124.067 226.077 122.702 227.607 122.702 229.722C122.702 231.882 124.127 233.337 126.392 233.337C127.607 233.337 128.657 232.902 129.317 232.032L128.507 231.297C128.192 231.717 127.577 232.227 126.497 232.227C125.087 232.227 124.202 231.372 124.067 230.067H129.377ZM126.212 227.187C127.337 227.187 128.072 227.952 128.087 229.122H124.097C124.292 227.982 125.072 227.187 126.212 227.187ZM131.106 233.247H132.426V222.657H131.106V233.247ZM134.563 233.247H135.883V222.657H134.563V233.247ZM141.68 226.077C140.33 226.077 139.535 226.887 139.16 227.772H139.115C139.115 227.457 139.055 226.662 138.935 226.122L138.005 226.167V233.247H139.325V229.542C139.325 228.522 139.985 227.187 141.455 227.187C142.52 227.187 143.105 227.877 143.105 228.912V233.247H144.44V228.912C144.44 227.217 143.375 226.077 141.68 226.077ZM152.727 230.067C152.727 230.067 152.787 229.812 152.787 229.392C152.787 227.532 151.647 226.077 149.562 226.077C147.417 226.077 146.052 227.607 146.052 229.722C146.052 231.882 147.477 233.337 149.742 233.337C150.957 233.337 152.007 232.902 152.667 232.032L151.857 231.297C151.542 231.717 150.927 232.227 149.847 232.227C148.437 232.227 147.552 231.372 147.417 230.067H152.727ZM149.562 227.187C150.687 227.187 151.422 227.952 151.437 229.122H147.447C147.642 227.982 148.422 227.187 149.562 227.187ZM158.431 228.702L159.646 228.612C159.646 228.612 159.706 228.402 159.706 228.117C159.706 226.947 158.596 226.077 156.931 226.077C155.266 226.077 154.156 226.992 154.156 228.162C154.156 230.787 158.461 229.857 158.461 231.312C158.461 231.852 157.951 232.227 156.901 232.227C155.821 232.227 154.936 231.657 154.636 231.372L153.826 232.272C154.231 232.602 155.146 233.337 156.886 233.337C158.611 233.337 159.826 232.602 159.811 231.327C159.766 228.642 155.506 229.842 155.506 228.177C155.506 227.592 156.016 227.187 156.901 227.187C157.831 227.187 158.476 227.622 158.476 228.357C158.476 228.462 158.461 228.597 158.431 228.702ZM165.491 228.702L166.706 228.612C166.706 228.612 166.766 228.402 166.766 228.117C166.766 226.947 165.656 226.077 163.991 226.077C162.326 226.077 161.216 226.992 161.216 228.162C161.216 230.787 165.521 229.857 165.521 231.312C165.521 231.852 165.011 232.227 163.961 232.227C162.881 232.227 161.996 231.657 161.696 231.372L160.886 232.272C161.291 232.602 162.206 233.337 163.946 233.337C165.671 233.337 166.886 232.602 166.871 231.327C166.826 228.642 162.566 229.842 162.566 228.177C162.566 227.592 163.076 227.187 163.961 227.187C164.891 227.187 165.536 227.622 165.536 228.357C165.536 228.462 165.521 228.597 165.491 228.702Z" fill="#424880"/>
<path d="M317.626 72.499H390.133V103.789H317.626V72.499Z" fill="#F3F7FC"/>
<path d="M328.006 85.67V84.515H322.021V94.415H323.386V90.005H327.331V88.82H323.386V85.67H328.006ZM331.122 85.04C331.122 84.53 330.702 84.14 330.192 84.14C329.682 84.14 329.277 84.53 329.277 85.04C329.277 85.55 329.682 85.925 330.192 85.925C330.702 85.925 331.122 85.55 331.122 85.04ZM329.487 94.415H330.822V87.29L329.487 87.335V94.415ZM337.414 92.975C337.414 92.975 336.934 93.38 336.109 93.38C335.149 93.38 334.744 92.81 334.744 91.67V88.4H337.489V87.335H334.744V85.16L333.409 85.235V87.335H332.284V88.4H333.409V91.715C333.409 93.53 334.144 94.505 335.974 94.505C337.129 94.505 337.834 94.04 337.834 94.04L337.414 92.975ZM342.683 87.245C341.333 87.245 340.538 88.055 340.163 88.94H340.118C340.118 88.625 340.058 87.83 339.938 87.29L339.008 87.335V94.415H340.328V90.71C340.328 89.69 340.988 88.355 342.458 88.355C343.523 88.355 344.108 89.045 344.108 90.08V94.415H345.443V90.08C345.443 88.385 344.378 87.245 342.683 87.245ZM353.73 91.235C353.73 91.235 353.79 90.98 353.79 90.56C353.79 88.7 352.65 87.245 350.565 87.245C348.42 87.245 347.055 88.775 347.055 90.89C347.055 93.05 348.48 94.505 350.745 94.505C351.96 94.505 353.01 94.07 353.67 93.2L352.86 92.465C352.545 92.885 351.93 93.395 350.85 93.395C349.44 93.395 348.555 92.54 348.42 91.235H353.73ZM350.565 88.355C351.69 88.355 352.425 89.12 352.44 90.29H348.45C348.645 89.15 349.425 88.355 350.565 88.355ZM359.434 89.87L360.649 89.78C360.649 89.78 360.709 89.57 360.709 89.285C360.709 88.115 359.599 87.245 357.934 87.245C356.269 87.245 355.159 88.16 355.159 89.33C355.159 91.955 359.464 91.025 359.464 92.48C359.464 93.02 358.954 93.395 357.904 93.395C356.824 93.395 355.939 92.825 355.639 92.54L354.829 93.44C355.234 93.77 356.149 94.505 357.889 94.505C359.614 94.505 360.829 93.77 360.814 92.495C360.769 89.81 356.509 91.01 356.509 89.345C356.509 88.76 357.019 88.355 357.904 88.355C358.834 88.355 359.479 88.79 359.479 89.525C359.479 89.63 359.464 89.765 359.434 89.87ZM366.494 89.87L367.709 89.78C367.709 89.78 367.769 89.57 367.769 89.285C367.769 88.115 366.659 87.245 364.994 87.245C363.329 87.245 362.219 88.16 362.219 89.33C362.219 91.955 366.524 91.025 366.524 92.48C366.524 93.02 366.014 93.395 364.964 93.395C363.884 93.395 362.999 92.825 362.699 92.54L361.889 93.44C362.294 93.77 363.209 94.505 364.949 94.505C366.674 94.505 367.889 93.77 367.874 92.495C367.829 89.81 363.569 91.01 363.569 89.345C363.569 88.76 364.079 88.355 364.964 88.355C365.894 88.355 366.539 88.79 366.539 89.525C366.539 89.63 366.524 89.765 366.494 89.87Z" fill="#424880"/>
<path d="M65 65.5352H137.507V101.788H65V65.5352Z" fill="#F3F7FC"/>
<path d="M87.0841 77.7621V81.9471H81.7591V77.7621H80.3941V87.6621H81.7591V83.1021H87.0841V87.6621H88.4491V77.7621H87.0841ZM97.0296 84.4821C97.0296 84.4821 97.0896 84.2271 97.0896 83.8071C97.0896 81.9471 95.9496 80.4921 93.8646 80.4921C91.7196 80.4921 90.3546 82.0221 90.3546 84.1371C90.3546 86.2971 91.7796 87.7521 94.0446 87.7521C95.2596 87.7521 96.3096 87.3171 96.9696 86.4471L96.1596 85.7121C95.8446 86.1321 95.2296 86.6421 94.1496 86.6421C92.7396 86.6421 91.8546 85.7871 91.7196 84.4821H97.0296ZM93.8646 81.6021C94.9896 81.6021 95.7246 82.3671 95.7396 83.5371H91.7496C91.9446 82.3971 92.7246 81.6021 93.8646 81.6021ZM105.148 86.5371C105.088 86.5521 104.983 86.5671 104.893 86.5671C104.563 86.5671 104.458 86.4171 104.458 86.0271V83.1621C104.458 81.5271 103.333 80.4921 101.413 80.4921C99.6134 80.4921 98.5034 81.4071 98.5034 82.6971C98.5034 83.0421 98.5934 83.3121 98.5934 83.3121L99.8384 83.1021C99.7934 82.9971 99.7634 82.9071 99.7634 82.7421C99.7634 82.0071 100.378 81.6021 101.383 81.6021C102.553 81.6021 103.138 82.2171 103.138 83.1771V83.6271H102.928C99.8084 83.6271 98.3384 84.2421 98.3384 85.7871C98.3384 86.9421 99.1784 87.7521 100.738 87.7521C102.388 87.7521 103.003 86.9121 103.198 86.5521H103.228V86.5671C103.228 87.3921 103.768 87.7371 104.503 87.7371C104.878 87.7371 105.223 87.6471 105.223 87.6471L105.148 86.5371ZM101.008 86.6421C100.108 86.6421 99.6884 86.3121 99.6884 85.7571C99.6884 84.9771 100.513 84.5421 102.928 84.5421H103.138V85.2171C103.138 85.8771 102.388 86.6421 101.008 86.6421ZM106.771 87.6621H108.091V77.0721H106.771V87.6621ZM114.683 86.2221C114.683 86.2221 114.203 86.6271 113.378 86.6271C112.418 86.6271 112.013 86.0571 112.013 84.9171V81.6471H114.758V80.5821H112.013V78.4071L110.678 78.4821V80.5821H109.553V81.6471H110.678V84.9621C110.678 86.7771 111.413 87.7521 113.243 87.7521C114.398 87.7521 115.103 87.2871 115.103 87.2871L114.683 86.2221ZM119.968 80.4921C118.783 80.4921 118.033 81.0921 117.613 81.8271H117.583V77.0721H116.278V87.6621H117.613V83.9721C117.613 82.9071 118.273 81.6021 119.743 81.6021C120.808 81.6021 121.393 82.2921 121.393 83.3271V87.6621H122.728V83.3271C122.728 81.6321 121.663 80.4921 119.968 80.4921Z" fill="#424880"/>
</g>
<defs>
<clipPath id="clip0_163_534">
<rect width="435" height="349" fill="white"/>
</clipPath>
</defs>
</svg>
