<svg width="241" height="241" viewBox="0 0 241 241" fill="none" xmlns="http://www.w3.org/2000/svg">
<g clip-path="url(#clip0_308_5860)">
<path d="M121.011 241.17C187.205 241.17 240.865 187.26 240.865 120.758C240.865 54.2564 187.205 0.346191 121.011 0.346191C54.8175 0.346191 1.15704 54.2564 1.15704 120.758C1.15704 187.26 54.8175 241.17 121.011 241.17Z" stroke="#57616E" stroke-width="0.691954"/>
<path d="M121.011 207.722C169.04 207.722 207.975 168.786 207.975 120.758C207.975 72.7286 169.04 33.7935 121.011 33.7935C72.982 33.7935 34.0469 72.7286 34.0469 120.758C34.0469 168.786 72.982 207.722 121.011 207.722Z" stroke="#57616E" stroke-width="0.691954"/>
<path d="M121.011 174.274C150.567 174.274 174.527 150.314 174.527 120.758C174.527 91.2013 150.567 67.2412 121.011 67.2412C91.4546 67.2412 67.4944 91.2013 67.4944 120.758C67.4944 150.314 91.4546 174.274 121.011 174.274Z" stroke="#57616E" stroke-width="0.691954"/>
<path d="M19.653 145.564H69.8245V170.65H19.653V145.564Z" fill="#EFE8D9"/>
<path d="M170.234 198.242H245.715V221.679H170.234V198.242Z" fill="#EFE6D5"/>
<path d="M120.861 96.9858C108.565 96.9858 98.5624 106.989 98.5624 119.284C98.5624 131.579 108.565 141.582 120.861 141.582C133.156 141.582 143.159 131.579 143.159 119.284C143.159 106.989 133.156 96.9858 120.861 96.9858ZM99.5789 119.519H110.826V130.952C110.826 132.574 112.145 133.895 113.767 133.896L114.871 133.897V139.71C106.113 137.138 99.6827 129.074 99.5789 119.519ZM115.955 123.78H124.855C125.154 123.78 125.396 123.537 125.396 123.238C125.396 122.939 125.154 122.696 124.855 122.696H115.955V119.519H125.857C128.411 119.519 130.698 120.943 131.828 123.234C132.281 124.153 132.51 125.141 132.51 126.172C132.51 127.347 132.2 128.5 131.615 129.509C130.427 131.554 128.221 132.826 125.859 132.826L115.955 132.816V123.781L115.955 123.78ZM123.808 118.413H116.707C116.653 118.413 116.6 118.421 116.55 118.436H115.955V110.5C115.955 109.757 116.559 109.152 117.302 109.152H129.887C129.902 109.159 129.919 109.164 129.936 109.169C130.274 109.966 130.461 110.842 130.461 111.76C130.461 115.428 127.476 118.413 123.808 118.413ZM117.301 108.069C115.961 108.069 114.87 109.159 114.87 110.5V118.436H111.908V106.971C111.908 105.943 112.745 105.107 113.773 105.107H123.808C126.112 105.107 128.145 106.284 129.34 108.069H117.302H117.301ZM114.87 119.519V132.814L113.767 132.812C112.743 132.812 111.908 131.977 111.908 130.952V119.519H114.87ZM120.86 140.569C119.172 140.569 117.53 140.371 115.955 139.998V133.899L125.857 133.909C128.605 133.909 131.17 132.432 132.551 130.054C133.233 128.879 133.593 127.538 133.593 126.173C133.593 124.974 133.326 123.824 132.8 122.756C131.724 120.573 129.744 119.068 127.431 118.595C129.876 117.293 131.544 114.718 131.544 111.76C131.544 107.495 128.074 104.024 123.808 104.024H113.773C112.148 104.024 110.825 105.346 110.825 106.972V118.436H99.5935C100.04 107.092 109.407 98.0002 120.86 98.0002C132.596 98.0002 142.144 107.549 142.144 119.285C142.144 131.021 132.596 140.569 120.86 140.569Z" fill="#AD8024"/>
<path d="M187.554 211.747H188.498V205.696H190.698V204.897H185.353V205.696H187.554V211.747ZM194.113 206.786C193.293 206.786 192.775 207.201 192.484 207.71H192.463V204.419H191.56V211.747H192.484V209.194C192.484 208.457 192.941 207.554 193.958 207.554C194.695 207.554 195.099 208.031 195.099 208.747V211.747H196.023V208.747C196.023 207.575 195.286 206.786 194.113 206.786ZM201.757 209.547C201.757 209.547 201.799 209.37 201.799 209.08C201.799 207.793 201.01 206.786 199.567 206.786C198.083 206.786 197.138 207.844 197.138 209.308C197.138 210.803 198.124 211.809 199.692 211.809C200.532 211.809 201.259 211.508 201.716 210.906L201.155 210.398C200.937 210.688 200.512 211.041 199.764 211.041C198.789 211.041 198.176 210.45 198.083 209.547H201.757ZM199.567 207.554C200.345 207.554 200.854 208.083 200.864 208.893H198.104C198.238 208.104 198.778 207.554 199.567 207.554ZM205.081 206.786C204.354 206.786 203.939 207.315 203.752 207.959H203.711C203.711 207.741 203.669 207.191 203.586 206.817L202.943 206.848V211.747H203.856V209.183C203.856 208.166 204.479 207.678 205.029 207.678C205.237 207.678 205.382 207.73 205.486 207.793L205.714 206.869C205.527 206.817 205.299 206.786 205.081 206.786ZM210.862 210.969C210.82 210.979 210.747 210.989 210.685 210.989C210.457 210.989 210.384 210.886 210.384 210.616V208.633C210.384 207.502 209.606 206.786 208.277 206.786C207.032 206.786 206.264 207.419 206.264 208.312C206.264 208.55 206.326 208.737 206.326 208.737L207.187 208.592C207.156 208.519 207.135 208.457 207.135 208.343C207.135 207.834 207.561 207.554 208.256 207.554C209.066 207.554 209.471 207.979 209.471 208.644V208.955H209.326C207.167 208.955 206.149 209.381 206.149 210.45C206.149 211.249 206.731 211.809 207.81 211.809C208.952 211.809 209.377 211.228 209.512 210.979H209.533V210.989C209.533 211.56 209.907 211.799 210.415 211.799C210.675 211.799 210.914 211.737 210.914 211.737L210.862 210.969ZM207.997 211.041C207.374 211.041 207.084 210.813 207.084 210.429C207.084 209.889 207.654 209.588 209.326 209.588H209.471V210.055C209.471 210.512 208.952 211.041 207.997 211.041ZM214.61 206.786C213.604 206.786 213.022 207.325 212.753 207.959H212.742C212.753 207.761 212.69 207.149 212.618 206.817L211.974 206.848V213.864H212.887V210.937C213.22 211.446 213.79 211.809 214.559 211.809C215.991 211.809 216.946 210.813 216.946 209.308C216.946 207.793 215.991 206.786 214.61 206.786ZM214.507 211.041C213.375 211.041 212.887 210.138 212.887 209.401V209.204C212.887 208.478 213.406 207.554 214.444 207.554C215.41 207.554 216.012 208.26 216.012 209.308C216.012 210.346 215.42 211.041 214.507 211.041ZM220.124 212.619L222.449 206.848H221.514L220.144 210.273C220.061 210.491 220.02 210.585 219.978 210.813H219.968C219.926 210.605 219.906 210.522 219.802 210.273L218.453 206.848H217.425L219.501 211.872L219.314 212.359C219.148 212.795 218.93 213.128 218.421 213.128C218.12 213.128 217.892 213.003 217.892 213.003L217.726 213.761C217.726 213.761 218.017 213.916 218.484 213.916C219.387 213.916 219.843 213.345 220.124 212.619Z" fill="#424880"/>
<path d="M28.6786 154.167L27.3916 159.128L27.1944 159.948H27.1736C27.1113 159.678 27.0594 159.429 26.9764 159.128L25.5752 154.167H24.693L23.2918 159.128C23.2087 159.408 23.1568 159.678 23.0945 159.948H23.0738L22.8766 159.128L21.5895 154.167H20.6139L22.5652 161.017H23.5616L24.8902 156.481C24.994 156.128 25.0978 155.651 25.1185 155.495H25.1393C25.16 155.651 25.2534 156.128 25.3572 156.481L26.6235 161.017H27.6614L29.6231 154.167H28.6786ZM34.5231 158.817C34.5231 158.817 34.5647 158.64 34.5647 158.35C34.5647 157.063 33.7758 156.056 32.3331 156.056C30.8489 156.056 29.9043 157.114 29.9043 158.578C29.9043 160.073 30.8904 161.079 32.4577 161.079C33.2984 161.079 34.0249 160.778 34.4816 160.176L33.9211 159.668C33.7032 159.958 33.2776 160.311 32.5303 160.311C31.5547 160.311 30.9423 159.72 30.8489 158.817H34.5231ZM32.3331 156.824C33.1116 156.824 33.6201 157.353 33.6305 158.163H30.8696C31.0046 157.374 31.5443 156.824 32.3331 156.824ZM35.7194 161.017H36.6327V153.689H35.7194V161.017ZM38.1115 161.017H39.0248V153.689H38.1115V161.017ZM43.0361 156.056C42.102 156.056 41.5519 156.616 41.2924 157.229H41.2613C41.2613 157.011 41.2197 156.461 41.1367 156.087L40.4932 156.118V161.017H41.4066V158.453C41.4066 157.748 41.8633 156.824 42.8804 156.824C43.6174 156.824 44.0222 157.301 44.0222 158.017V161.017H44.9459V158.017C44.9459 156.845 44.209 156.056 43.0361 156.056ZM50.68 158.817C50.68 158.817 50.7215 158.64 50.7215 158.35C50.7215 157.063 49.9327 156.056 48.49 156.056C47.0057 156.056 46.0612 157.114 46.0612 158.578C46.0612 160.073 47.0472 161.079 48.6145 161.079C49.4552 161.079 50.1818 160.778 50.6385 160.176L50.078 159.668C49.86 159.958 49.4345 160.311 48.6872 160.311C47.7115 160.311 47.0991 159.72 47.0057 158.817H50.68ZM48.49 156.824C49.2684 156.824 49.777 157.353 49.7874 158.163H47.0265C47.1614 157.374 47.7011 156.824 48.49 156.824ZM54.6267 157.872L55.4675 157.81C55.4675 157.81 55.509 157.665 55.509 157.467C55.509 156.658 54.7409 156.056 53.5888 156.056C52.4367 156.056 51.6686 156.689 51.6686 157.499C51.6686 159.315 54.6475 158.671 54.6475 159.678C54.6475 160.052 54.2946 160.311 53.568 160.311C52.8207 160.311 52.2083 159.917 52.0008 159.72L51.4403 160.342C51.7205 160.571 52.3537 161.079 53.5577 161.079C54.7513 161.079 55.592 160.571 55.5816 159.689C55.5505 157.831 52.6028 158.661 52.6028 157.509C52.6028 157.104 52.9557 156.824 53.568 156.824C54.2116 156.824 54.6579 157.125 54.6579 157.633C54.6579 157.706 54.6475 157.8 54.6267 157.872ZM59.5123 157.872L60.353 157.81C60.353 157.81 60.3945 157.665 60.3945 157.467C60.3945 156.658 59.6265 156.056 58.4744 156.056C57.3223 156.056 56.5542 156.689 56.5542 157.499C56.5542 159.315 59.5331 158.671 59.5331 159.678C59.5331 160.052 59.1802 160.311 58.4536 160.311C57.7063 160.311 57.0939 159.917 56.8863 159.72L56.3259 160.342C56.6061 160.571 57.2392 161.079 58.4432 161.079C59.6369 161.079 60.4776 160.571 60.4672 159.689C60.4361 157.831 57.4883 158.661 57.4883 157.509C57.4883 157.104 57.8412 156.824 58.4536 156.824C59.0971 156.824 59.5434 157.125 59.5434 157.633C59.5434 157.706 59.5331 157.8 59.5123 157.872Z" fill="#424880"/>
<path d="M164.783 50.166H214.954V71.8173H164.783V50.166Z" fill="#F0EADE"/>
<path d="M171.965 58.9005V58.1013H167.824V64.9517H168.768V61.9001H171.498V61.0802H168.768V58.9005H171.965ZM174.121 58.4646C174.121 58.1117 173.83 57.8418 173.478 57.8418C173.125 57.8418 172.844 58.1117 172.844 58.4646C172.844 58.8175 173.125 59.077 173.478 59.077C173.83 59.077 174.121 58.8175 174.121 58.4646ZM172.99 64.9517H173.914V60.0215L172.99 60.0526V64.9517ZM178.475 63.9552C178.475 63.9552 178.143 64.2355 177.572 64.2355C176.907 64.2355 176.627 63.8411 176.627 63.0522V60.7896H178.527V60.0526H176.627V58.5476L175.703 58.5995V60.0526H174.925V60.7896H175.703V63.0834C175.703 64.3393 176.212 65.0139 177.478 65.0139C178.277 65.0139 178.765 64.6922 178.765 64.6922L178.475 63.9552ZM182.121 59.9903C181.187 59.9903 180.637 60.5508 180.377 61.1632H180.346C180.346 60.9452 180.304 60.3951 180.221 60.0215L179.578 60.0526V64.9517H180.491V62.388C180.491 61.6822 180.948 60.7584 181.965 60.7584C182.702 60.7584 183.107 61.2359 183.107 61.952V64.9517H184.031V61.952C184.031 60.7792 183.294 59.9903 182.121 59.9903ZM189.765 62.7512C189.765 62.7512 189.806 62.5748 189.806 62.2842C189.806 60.9971 189.017 59.9903 187.575 59.9903C186.09 59.9903 185.146 61.049 185.146 62.5125C185.146 64.0071 186.132 65.0139 187.699 65.0139C188.54 65.0139 189.267 64.7129 189.723 64.1109L189.163 63.6023C188.945 63.893 188.519 64.2459 187.772 64.2459C186.796 64.2459 186.184 63.6542 186.09 62.7512H189.765ZM187.575 60.7584C188.353 60.7584 188.862 61.2878 188.872 62.0973H186.111C186.246 61.3085 186.786 60.7584 187.575 60.7584ZM193.711 61.8067L194.552 61.7445C194.552 61.7445 194.594 61.5991 194.594 61.4019C194.594 60.5923 193.826 59.9903 192.674 59.9903C191.521 59.9903 190.753 60.6235 190.753 61.4331C190.753 63.2495 193.732 62.6059 193.732 63.6127C193.732 63.9864 193.379 64.2459 192.653 64.2459C191.905 64.2459 191.293 63.8515 191.086 63.6542L190.525 64.277C190.805 64.5053 191.438 65.0139 192.642 65.0139C193.836 65.0139 194.677 64.5053 194.666 63.6231C194.635 61.7652 191.688 62.5956 191.688 61.4435C191.688 61.0387 192.04 60.7584 192.653 60.7584C193.296 60.7584 193.743 61.0594 193.743 61.568C193.743 61.6407 193.732 61.7341 193.711 61.8067ZM198.597 61.8067L199.438 61.7445C199.438 61.7445 199.479 61.5991 199.479 61.4019C199.479 60.5923 198.711 59.9903 197.559 59.9903C196.407 59.9903 195.639 60.6235 195.639 61.4331C195.639 63.2495 198.618 62.6059 198.618 63.6127C198.618 63.9864 198.265 64.2459 197.538 64.2459C196.791 64.2459 196.179 63.8515 195.971 63.6542L195.411 64.277C195.691 64.5053 196.324 65.0139 197.528 65.0139C198.722 65.0139 199.562 64.5053 199.552 63.6231C199.521 61.7652 196.573 62.5956 196.573 61.4435C196.573 61.0387 196.926 60.7584 197.538 60.7584C198.182 60.7584 198.628 61.0594 198.628 61.568C198.628 61.6407 198.618 61.7341 198.597 61.8067Z" fill="#424880"/>
<path d="M-10.023 45.3477H40.1485V70.4331H-10.023V45.3477Z" fill="#F0ECE1"/>
<path d="M5.25824 53.4285V56.3243H1.57358V53.4285H0.629068V60.2788H1.57358V57.1235H5.25824V60.2788H6.20276V53.4285H5.25824ZM12.14 58.0784C12.14 58.0784 12.1816 57.9019 12.1816 57.6113C12.1816 56.3243 11.3927 55.3175 9.95001 55.3175C8.46577 55.3175 7.52125 56.3762 7.52125 57.8397C7.52125 59.3343 8.50729 60.3411 10.0746 60.3411C10.9153 60.3411 11.6418 60.0401 12.0985 59.4381L11.538 58.9295C11.3201 59.2201 10.8945 59.573 10.1472 59.573C9.17156 59.573 8.55919 58.9814 8.46577 58.0784H12.14ZM9.95001 56.0856C10.7285 56.0856 11.237 56.6149 11.2474 57.4245H8.48653C8.62146 56.6357 9.16119 56.0856 9.95001 56.0856ZM17.7578 59.5004C17.7163 59.5107 17.6437 59.5211 17.5814 59.5211C17.3531 59.5211 17.2804 59.4173 17.2804 59.1475V57.165C17.2804 56.0337 16.502 55.3175 15.1734 55.3175C13.9279 55.3175 13.1598 55.9506 13.1598 56.8433C13.1598 57.082 13.2221 57.2688 13.2221 57.2688L14.0836 57.1235C14.0524 57.0508 14.0317 56.9886 14.0317 56.8744C14.0317 56.3658 14.4572 56.0856 15.1526 56.0856C15.9622 56.0856 16.367 56.5111 16.367 57.1754V57.4868H16.2217C14.0628 57.4868 13.0456 57.9123 13.0456 58.9814C13.0456 59.7806 13.6269 60.3411 14.7063 60.3411C15.8481 60.3411 16.2736 59.7598 16.4085 59.5107H16.4293V59.5211C16.4293 60.092 16.803 60.3307 17.3115 60.3307C17.571 60.3307 17.8097 60.2684 17.8097 60.2684L17.7578 59.5004ZM14.8932 59.573C14.2704 59.573 13.9798 59.3447 13.9798 58.9606C13.9798 58.4209 14.5506 58.1199 16.2217 58.1199H16.367V58.587C16.367 59.0437 15.8481 59.573 14.8932 59.573ZM18.8807 60.2788H19.7941V52.951H18.8807V60.2788ZM24.3554 59.2824C24.3554 59.2824 24.0233 59.5626 23.4524 59.5626C22.7882 59.5626 22.5079 59.1682 22.5079 58.3794V56.1167H24.4073V55.3798H22.5079V53.8748L21.5842 53.9267V55.3798H20.8057V56.1167H21.5842V58.4105C21.5842 59.6664 22.0928 60.3411 23.359 60.3411C24.1582 60.3411 24.6461 60.0193 24.6461 60.0193L24.3554 59.2824ZM28.012 55.3175C27.1921 55.3175 26.6731 55.7327 26.3825 56.2413H26.3617V52.951H25.4587V60.2788H26.3825V57.7255C26.3825 56.9886 26.8392 56.0856 27.8564 56.0856C28.5933 56.0856 28.9981 56.563 28.9981 57.2792V60.2788H29.9218V57.2792C29.9218 56.1063 29.1849 55.3175 28.012 55.3175Z" fill="#424880"/>
</g>
<defs>
<clipPath id="clip0_308_5860">
<rect width="241" height="241" fill="white"/>
</clipPath>
</defs>
</svg>
