<svg width="349" height="349" viewBox="0 0 349 349" fill="none" xmlns="http://www.w3.org/2000/svg">
<g clip-path="url(#clip0_163_534)">
<path d="M175.368 348.534C271.03 348.534 348.579 270.624 348.579 174.517C348.579 78.4101 271.03 0.5 175.368 0.5C79.7064 0.5 2.15723 78.4101 2.15723 174.517C2.15723 270.624 79.7064 348.534 175.368 348.534Z" stroke="#57616E"/>
<path d="M175.368 300.196C244.779 300.196 301.047 243.927 301.047 174.517C301.047 105.106 244.779 48.8379 175.368 48.8379C105.957 48.8379 49.689 105.106 49.689 174.517C49.689 243.927 105.957 300.196 175.368 300.196Z" stroke="#57616E"/>
<path d="M175.368 251.858C218.082 251.858 252.709 217.231 252.709 174.517C252.709 131.803 218.082 97.1758 175.368 97.1758C132.654 97.1758 98.0269 131.803 98.0269 174.517C98.0269 217.231 132.654 251.858 175.368 251.858Z" stroke="#57616E"/>
<path d="M28.8872 210.367H101.394V246.62H28.8872V210.367Z" fill="#F0EBE0"/>
<path d="M246.505 286.496H355.588V320.366H246.505V286.496Z" fill="#EFE8D9"/>
<path d="M175.151 140.162C157.382 140.162 142.926 154.618 142.926 172.387C142.926 190.156 157.382 204.612 175.151 204.612C192.92 204.612 207.376 190.156 207.376 172.387C207.376 154.618 192.92 140.162 175.151 140.162ZM144.395 172.727H160.649V189.249C160.649 191.593 162.556 193.502 164.9 193.504L166.495 193.506V201.906C153.838 198.189 144.545 186.535 144.395 172.727ZM168.061 178.884H180.923C181.355 178.884 181.706 178.533 181.706 178.101C181.706 177.669 181.355 177.318 180.923 177.318H168.061V172.727H182.372C186.062 172.727 189.368 174.784 191.001 178.096C191.655 179.423 191.987 180.851 191.987 182.342C191.987 184.039 191.539 185.706 190.693 187.164C188.976 190.12 185.788 191.957 182.374 191.957L168.062 191.943V178.886L168.061 178.884ZM179.41 171.128H169.148C169.07 171.128 168.994 171.14 168.922 171.161H168.061V159.692C168.061 158.618 168.934 157.745 170.008 157.745H188.195C188.217 157.755 188.242 157.761 188.266 157.769C188.755 158.92 189.025 160.186 189.025 161.513C189.025 166.815 184.712 171.128 179.41 171.128ZM170.007 156.179C168.07 156.179 166.494 157.755 166.494 159.692V171.161H162.213V154.593C162.213 153.107 163.422 151.898 164.908 151.898H179.41C182.74 151.898 185.678 153.6 187.405 156.179H170.008H170.007ZM166.494 172.727V191.94L164.9 191.938C163.419 191.937 162.213 190.73 162.213 189.249V172.727H166.494ZM175.15 203.148C172.711 203.148 170.337 202.861 168.061 202.322V193.508L182.372 193.523C186.343 193.523 190.05 191.388 192.046 187.951C193.031 186.254 193.552 184.315 193.552 182.343C193.552 180.61 193.166 178.948 192.405 177.404C190.85 174.25 187.989 172.075 184.647 171.391C188.18 169.51 190.591 165.788 190.591 161.514C190.591 155.349 185.575 150.333 179.41 150.333H164.908C162.559 150.333 160.647 152.244 160.647 154.594V171.162H144.416C145.062 154.767 158.599 141.628 175.15 141.628C192.111 141.628 205.91 155.427 205.91 172.388C205.91 189.349 192.111 203.148 175.15 203.148Z" fill="#AD8024"/>
<path d="M271.534 306.561H272.899V297.816H276.079V296.661H268.354V297.816H271.534V306.561ZM281.014 299.391C279.829 299.391 279.079 299.991 278.659 300.726H278.629V295.971H277.324V306.561H278.659V302.871C278.659 301.806 279.319 300.501 280.789 300.501C281.854 300.501 282.439 301.191 282.439 302.226V306.561H283.774V302.226C283.774 300.531 282.709 299.391 281.014 299.391ZM292.061 303.381C292.061 303.381 292.121 303.126 292.121 302.706C292.121 300.846 290.981 299.391 288.896 299.391C286.751 299.391 285.386 300.921 285.386 303.036C285.386 305.196 286.811 306.651 289.076 306.651C290.291 306.651 291.341 306.216 292.001 305.346L291.191 304.611C290.876 305.031 290.261 305.541 289.181 305.541C287.771 305.541 286.886 304.686 286.751 303.381H292.061ZM288.896 300.501C290.021 300.501 290.756 301.266 290.771 302.436H286.781C286.976 301.296 287.756 300.501 288.896 300.501ZM296.865 299.391C295.815 299.391 295.215 300.156 294.945 301.086H294.885C294.885 300.771 294.825 299.976 294.705 299.436L293.775 299.481V306.561H295.095V302.856C295.095 301.386 295.995 300.681 296.79 300.681C297.09 300.681 297.3 300.756 297.45 300.846L297.78 299.511C297.51 299.436 297.18 299.391 296.865 299.391ZM305.219 305.436C305.159 305.451 305.054 305.466 304.964 305.466C304.634 305.466 304.529 305.316 304.529 304.926V302.061C304.529 300.426 303.404 299.391 301.484 299.391C299.684 299.391 298.574 300.306 298.574 301.596C298.574 301.941 298.664 302.211 298.664 302.211L299.909 302.001C299.864 301.896 299.834 301.806 299.834 301.641C299.834 300.906 300.449 300.501 301.454 300.501C302.624 300.501 303.209 301.116 303.209 302.076V302.526H302.999C299.879 302.526 298.409 303.141 298.409 304.686C298.409 305.841 299.249 306.651 300.809 306.651C302.459 306.651 303.074 305.811 303.269 305.451H303.299V305.466C303.299 306.291 303.839 306.636 304.574 306.636C304.949 306.636 305.294 306.546 305.294 306.546L305.219 305.436ZM301.079 305.541C300.179 305.541 299.759 305.211 299.759 304.656C299.759 303.876 300.584 303.441 302.999 303.441H303.209V304.116C303.209 304.776 302.459 305.541 301.079 305.541ZM310.636 299.391C309.181 299.391 308.341 300.171 307.951 301.086H307.936C307.951 300.801 307.861 299.916 307.756 299.436L306.826 299.481V309.621H308.146V305.391C308.626 306.126 309.451 306.651 310.561 306.651C312.631 306.651 314.011 305.211 314.011 303.036C314.011 300.846 312.631 299.391 310.636 299.391ZM310.486 305.541C308.851 305.541 308.146 304.236 308.146 303.171V302.886C308.146 301.836 308.896 300.501 310.396 300.501C311.791 300.501 312.661 301.521 312.661 303.036C312.661 304.536 311.806 305.541 310.486 305.541ZM318.604 307.821L321.964 299.481H320.614L318.634 304.431C318.514 304.746 318.454 304.881 318.394 305.211H318.379C318.319 304.911 318.289 304.791 318.139 304.431L316.189 299.481H314.704L317.704 306.741L317.434 307.446C317.194 308.076 316.879 308.556 316.144 308.556C315.709 308.556 315.379 308.376 315.379 308.376L315.139 309.471C315.139 309.471 315.559 309.696 316.234 309.696C317.539 309.696 318.199 308.871 318.604 307.821Z" fill="#424880"/>
<path d="M41.9309 223.347L40.0709 230.517L39.7859 231.702H39.7559C39.6659 231.312 39.5909 230.952 39.4709 230.517L37.4459 223.347H36.1709L34.1459 230.517C34.0259 230.922 33.9509 231.312 33.8609 231.702H33.8309L33.5459 230.517L31.6859 223.347H30.2759L33.0959 233.247H34.5359L36.4559 226.692C36.6059 226.182 36.7559 225.492 36.7859 225.267H36.8159C36.8459 225.492 36.9809 226.182 37.1309 226.692L38.9609 233.247H40.4609L43.2959 223.347H41.9309ZM50.3773 230.067C50.3773 230.067 50.4373 229.812 50.4373 229.392C50.4373 227.532 49.2973 226.077 47.2123 226.077C45.0673 226.077 43.7023 227.607 43.7023 229.722C43.7023 231.882 45.1273 233.337 47.3923 233.337C48.6073 233.337 49.6573 232.902 50.3173 232.032L49.5073 231.297C49.1923 231.717 48.5773 232.227 47.4973 232.227C46.0873 232.227 45.2023 231.372 45.0673 230.067H50.3773ZM47.2123 227.187C48.3373 227.187 49.0723 227.952 49.0873 229.122H45.0973C45.2923 227.982 46.0723 227.187 47.2123 227.187ZM52.106 233.247H53.426V222.657H52.106V233.247ZM55.563 233.247H56.883V222.657H55.563V233.247ZM62.6801 226.077C61.3301 226.077 60.5351 226.887 60.1601 227.772H60.1151C60.1151 227.457 60.0551 226.662 59.9351 226.122L59.0051 226.167V233.247H60.3251V229.542C60.3251 228.522 60.9851 227.187 62.4551 227.187C63.5201 227.187 64.1051 227.877 64.1051 228.912V233.247H65.4401V228.912C65.4401 227.217 64.3751 226.077 62.6801 226.077ZM73.7269 230.067C73.7269 230.067 73.7869 229.812 73.7869 229.392C73.7869 227.532 72.6469 226.077 70.5619 226.077C68.4169 226.077 67.0519 227.607 67.0519 229.722C67.0519 231.882 68.4769 233.337 70.7419 233.337C71.9569 233.337 73.0069 232.902 73.6669 232.032L72.8569 231.297C72.5419 231.717 71.9269 232.227 70.8469 232.227C69.4369 232.227 68.5519 231.372 68.4169 230.067H73.7269ZM70.5619 227.187C71.6869 227.187 72.4219 227.952 72.4369 229.122H68.4469C68.6419 227.982 69.4219 227.187 70.5619 227.187ZM79.4306 228.702L80.6456 228.612C80.6456 228.612 80.7056 228.402 80.7056 228.117C80.7056 226.947 79.5956 226.077 77.9306 226.077C76.2656 226.077 75.1556 226.992 75.1556 228.162C75.1556 230.787 79.4606 229.857 79.4606 231.312C79.4606 231.852 78.9506 232.227 77.9006 232.227C76.8206 232.227 75.9356 231.657 75.6356 231.372L74.8256 232.272C75.2306 232.602 76.1456 233.337 77.8856 233.337C79.6106 233.337 80.8256 232.602 80.8106 231.327C80.7656 228.642 76.5056 229.842 76.5056 228.177C76.5056 227.592 77.0156 227.187 77.9006 227.187C78.8306 227.187 79.4756 227.622 79.4756 228.357C79.4756 228.462 79.4606 228.597 79.4306 228.702ZM86.4912 228.702L87.7062 228.612C87.7062 228.612 87.7662 228.402 87.7662 228.117C87.7662 226.947 86.6562 226.077 84.9912 226.077C83.3262 226.077 82.2162 226.992 82.2162 228.162C82.2162 230.787 86.5212 229.857 86.5212 231.312C86.5212 231.852 86.0112 232.227 84.9612 232.227C83.8812 232.227 82.9962 231.657 82.6962 231.372L81.8862 232.272C82.2912 232.602 83.2062 233.337 84.9462 233.337C86.6712 233.337 87.8862 232.602 87.8712 231.327C87.8262 228.642 83.5662 229.842 83.5662 228.177C83.5662 227.592 84.0762 227.187 84.9612 227.187C85.8912 227.187 86.5362 227.622 86.5362 228.357C86.5362 228.462 86.5212 228.597 86.4912 228.702Z" fill="#424880"/>
<path d="M238.626 72.499H311.133V103.789H238.626V72.499Z" fill="#EFE6D5"/>
<path d="M249.006 85.67V84.515H243.021V94.415H244.386V90.005H248.331V88.82H244.386V85.67H249.006ZM252.122 85.04C252.122 84.53 251.702 84.14 251.192 84.14C250.682 84.14 250.277 84.53 250.277 85.04C250.277 85.55 250.682 85.925 251.192 85.925C251.702 85.925 252.122 85.55 252.122 85.04ZM250.487 94.415H251.822V87.29L250.487 87.335V94.415ZM258.414 92.975C258.414 92.975 257.934 93.38 257.109 93.38C256.149 93.38 255.744 92.81 255.744 91.67V88.4H258.489V87.335H255.744V85.16L254.409 85.235V87.335H253.284V88.4H254.409V91.715C254.409 93.53 255.144 94.505 256.974 94.505C258.129 94.505 258.834 94.04 258.834 94.04L258.414 92.975ZM263.683 87.245C262.333 87.245 261.538 88.055 261.163 88.94H261.118C261.118 88.625 261.058 87.83 260.938 87.29L260.008 87.335V94.415H261.328V90.71C261.328 89.69 261.988 88.355 263.458 88.355C264.523 88.355 265.108 89.045 265.108 90.08V94.415H266.443V90.08C266.443 88.385 265.378 87.245 263.683 87.245ZM274.73 91.235C274.73 91.235 274.79 90.98 274.79 90.56C274.79 88.7 273.65 87.245 271.565 87.245C269.42 87.245 268.055 88.775 268.055 90.89C268.055 93.05 269.48 94.505 271.745 94.505C272.96 94.505 274.01 94.07 274.67 93.2L273.86 92.465C273.545 92.885 272.93 93.395 271.85 93.395C270.44 93.395 269.555 92.54 269.42 91.235H274.73ZM271.565 88.355C272.69 88.355 273.425 89.12 273.44 90.29H269.45C269.645 89.15 270.425 88.355 271.565 88.355ZM280.434 89.87L281.649 89.78C281.649 89.78 281.709 89.57 281.709 89.285C281.709 88.115 280.599 87.245 278.934 87.245C277.269 87.245 276.159 88.16 276.159 89.33C276.159 91.955 280.464 91.025 280.464 92.48C280.464 93.02 279.954 93.395 278.904 93.395C277.824 93.395 276.939 92.825 276.639 92.54L275.829 93.44C276.234 93.77 277.149 94.505 278.889 94.505C280.614 94.505 281.829 93.77 281.814 92.495C281.769 89.81 277.509 91.01 277.509 89.345C277.509 88.76 278.019 88.355 278.904 88.355C279.834 88.355 280.479 88.79 280.479 89.525C280.479 89.63 280.464 89.765 280.434 89.87ZM287.494 89.87L288.709 89.78C288.709 89.78 288.769 89.57 288.769 89.285C288.769 88.115 287.659 87.245 285.994 87.245C284.329 87.245 283.219 88.16 283.219 89.33C283.219 91.955 287.524 91.025 287.524 92.48C287.524 93.02 287.014 93.395 285.964 93.395C284.884 93.395 283.999 92.825 283.699 92.54L282.889 93.44C283.294 93.77 284.209 94.505 285.949 94.505C287.674 94.505 288.889 93.77 288.874 92.495C288.829 89.81 284.569 91.01 284.569 89.345C284.569 88.76 285.079 88.355 285.964 88.355C286.894 88.355 287.539 88.79 287.539 89.525C287.539 89.63 287.524 89.765 287.494 89.87Z" fill="#424880"/>
<path d="M-14 65.5352H58.507V101.788H-14V65.5352Z" fill="#F0EBE0"/>
<path d="M8.08414 77.7621V81.9471H2.75914V77.7621H1.39414V87.6621H2.75914V83.1021H8.08414V87.6621H9.44914V77.7621H8.08414ZM18.0296 84.4821C18.0296 84.4821 18.0896 84.2271 18.0896 83.8071C18.0896 81.9471 16.9496 80.4921 14.8646 80.4921C12.7196 80.4921 11.3546 82.0221 11.3546 84.1371C11.3546 86.2971 12.7796 87.7521 15.0446 87.7521C16.2596 87.7521 17.3096 87.3171 17.9696 86.4471L17.1596 85.7121C16.8446 86.1321 16.2296 86.6421 15.1496 86.6421C13.7396 86.6421 12.8546 85.7871 12.7196 84.4821H18.0296ZM14.8646 81.6021C15.9896 81.6021 16.7246 82.3671 16.7396 83.5371H12.7496C12.9446 82.3971 13.7246 81.6021 14.8646 81.6021ZM26.1484 86.5371C26.0884 86.5521 25.9834 86.5671 25.8934 86.5671C25.5634 86.5671 25.4584 86.4171 25.4584 86.0271V83.1621C25.4584 81.5271 24.3334 80.4921 22.4134 80.4921C20.6134 80.4921 19.5034 81.4071 19.5034 82.6971C19.5034 83.0421 19.5934 83.3121 19.5934 83.3121L20.8384 83.1021C20.7934 82.9971 20.7634 82.9071 20.7634 82.7421C20.7634 82.0071 21.3784 81.6021 22.3834 81.6021C23.5534 81.6021 24.1384 82.2171 24.1384 83.1771V83.6271H23.9284C20.8084 83.6271 19.3384 84.2421 19.3384 85.7871C19.3384 86.9421 20.1784 87.7521 21.7384 87.7521C23.3884 87.7521 24.0034 86.9121 24.1984 86.5521H24.2284V86.5671C24.2284 87.3921 24.7684 87.7371 25.5034 87.7371C25.8784 87.7371 26.2234 87.6471 26.2234 87.6471L26.1484 86.5371ZM22.0084 86.6421C21.1084 86.6421 20.6884 86.3121 20.6884 85.7571C20.6884 84.9771 21.5134 84.5421 23.9284 84.5421H24.1384V85.2171C24.1384 85.8771 23.3884 86.6421 22.0084 86.6421ZM27.7711 87.6621H29.0911V77.0721H27.7711V87.6621ZM35.6831 86.2221C35.6831 86.2221 35.2031 86.6271 34.3781 86.6271C33.4181 86.6271 33.0131 86.0571 33.0131 84.9171V81.6471H35.7581V80.5821H33.0131V78.4071L31.6781 78.4821V80.5821H30.5531V81.6471H31.6781V84.9621C31.6781 86.7771 32.4131 87.7521 34.2431 87.7521C35.3981 87.7521 36.1031 87.2871 36.1031 87.2871L35.6831 86.2221ZM40.9675 80.4921C39.7825 80.4921 39.0325 81.0921 38.6125 81.8271H38.5825V77.0721H37.2775V87.6621H38.6125V83.9721C38.6125 82.9071 39.2725 81.6021 40.7425 81.6021C41.8075 81.6021 42.3925 82.2921 42.3925 83.3271V87.6621H43.7275V83.3271C43.7275 81.6321 42.6625 80.4921 40.9675 80.4921Z" fill="#424880"/>
</g>
<defs>
<clipPath id="clip0_163_534">
<rect width="349" height="349" fill="white"/>
</clipPath>
</defs>
</svg>
