<svg width="34" height="34" viewBox="0 0 34 34" fill="none" xmlns="http://www.w3.org/2000/svg">
<g clip-path="url(#clip0_810_2499)">
<path d="M11.1978 13.9833H13.6877V22H11.1978V13.9833ZM12.4436 10C13.2402 10 13.8846 10.6477 13.8846 11.4435C13.8846 12.2393 13.2393 12.8896 12.4436 12.8896C11.648 12.8896 11 12.241 11 11.4435C11 10.646 11.6453 10 12.4436 10Z" fill="#AD8024"/>
<path d="M15.2471 13.9834H17.6315V15.0797H17.664C17.9963 14.4487 18.8069 13.7852 20.0185 13.7852C22.5356 13.7852 22.9998 15.4446 22.9998 17.6036V22.0002H20.5152V18.1024C20.5152 17.1718 20.4967 15.9768 19.2228 15.9768C17.9286 15.9768 17.7317 16.9894 17.7317 18.0346V22.0002H15.2471V13.9834Z" fill="#AD8024"/>
<path d="M16.9998 33.7001C26.223 33.7001 33.6998 26.2232 33.6998 17C33.6998 7.77689 26.223 0.300049 16.9998 0.300049C7.77665 0.300049 0.299805 7.77689 0.299805 17C0.299805 26.2232 7.77665 33.7001 16.9998 33.7001Z" stroke="#AD8024" stroke-width="0.6"/>
</g>
<defs>
<clipPath id="clip0_810_2499">
<rect width="34" height="34" fill="white"/>
</clipPath>
</defs>
</svg>
