<svg width="54" height="54" viewBox="0 0 54 54" fill="none" xmlns="http://www.w3.org/2000/svg">
<circle cx="27" cy="27" r="27" fill="white"/>
<path d="M30.481 37.0668C30.0905 36.6763 29.4573 36.6763 29.0668 37.0668C28.6763 37.4573 28.6763 38.0905 29.0668 38.481L30.481 37.0668ZM42.9998 51.9998C43.5521 51.9998 43.9998 51.5521 43.9998 50.9998V41.9998C43.9998 41.4476 43.5521 40.9998 42.9998 40.9998C42.4476 40.9998 41.9998 41.4476 41.9998 41.9998V49.9998H33.9998C33.4476 49.9998 32.9998 50.4476 32.9998 50.9998C32.9998 51.5521 33.4476 51.9998 33.9998 51.9998H42.9998ZM29.0668 38.481L42.2927 51.7069L43.7069 50.2927L30.481 37.0668L29.0668 38.481Z" fill="#AD8024"/>
<path d="M30.481 23.9327C30.0905 24.3232 29.4573 24.3232 29.0668 23.9327C28.6763 23.5422 28.6763 22.909 29.0668 22.5185L30.481 23.9327ZM42.9998 8.99968C43.5521 8.99968 43.9998 9.44739 43.9998 9.99968V18.9997C43.9998 19.552 43.5521 19.9997 42.9998 19.9997C42.4476 19.9997 41.9998 19.552 41.9998 18.9997V10.9997H33.9998C33.4476 10.9997 32.9998 10.552 32.9998 9.99968C32.9998 9.44739 33.4476 8.99968 33.9998 8.99968H42.9998ZM29.0668 22.5185L42.2927 9.29257L43.7069 10.7068L30.481 23.9327L29.0668 22.5185Z" fill="#AD8024"/>
<path d="M15.9327 38.481C16.3232 38.0905 16.3232 37.4573 15.9327 37.0668C15.5422 36.6763 14.909 36.6763 14.5185 37.0668L15.9327 38.481ZM0.999676 50.9998C0.999676 51.5521 1.44739 51.9998 1.99968 51.9998L10.9997 51.9998C11.552 51.9998 11.9997 51.5521 11.9997 50.9998C11.9997 50.4476 11.552 49.9998 10.9997 49.9998L2.99968 49.9998L2.99968 41.9998C2.99968 41.4475 2.55196 40.9998 1.99968 40.9998C1.44739 40.9998 0.999677 41.4475 0.999676 41.9998L0.999676 50.9998ZM14.5185 37.0668L1.29257 50.2927L2.70678 51.7069L15.9327 38.481L14.5185 37.0668Z" fill="#AD8024"/>
<path d="M15.9327 22.5185C16.3232 22.909 16.3232 23.5422 15.9327 23.9327C15.5422 24.3232 14.909 24.3232 14.5185 23.9327L15.9327 22.5185ZM0.999676 9.99968C0.999676 9.44739 1.44739 8.99968 1.99968 8.99968L10.9997 8.99968C11.552 8.99968 11.9997 9.44739 11.9997 9.99968C11.9997 10.552 11.552 10.9997 10.9997 10.9997L2.99968 10.9997L2.99968 18.9997C2.99968 19.552 2.55196 19.9997 1.99968 19.9997C1.44739 19.9997 0.999676 19.552 0.999676 18.9997L0.999676 9.99968ZM14.5185 23.9327L1.29257 10.7068L2.70678 9.29257L15.9327 22.5185L14.5185 23.9327Z" fill="#AD8024"/>
</svg>
