<svg width="54" height="54" viewBox="0 0 54 54" fill="none" xmlns="http://www.w3.org/2000/svg">
<circle cx="27" cy="27" r="27" fill="white"/>
<g clip-path="url(#clip0_558_1615)">
<path d="M51 36.8775H45.3816L39.1826 19.154L39.2083 19.1461C43.3025 17.9022 46.7307 16.5 51 16.5C52.3333 20.085 54.2 29.5795 51 36.8775Z" stroke="#AD8024" stroke-width="2" stroke-linecap="round" stroke-linejoin="round"/>
<path d="M13.7913 17.2709L9.61908 34.427L2.49994 35C-6.28233e-05 30.5 0.999937 15.9999 3.99994 14.9999C6.39994 14.1999 11.5275 16.1806 13.7913 17.2709Z" stroke="#AD8024" stroke-width="2" stroke-linecap="round" stroke-linejoin="round"/>
<path d="M24.1718 38.8342L29.5283 44.0133C30.3771 44.834 31.6953 44.8525 32.5656 44.0559C33.5499 43.1547 33.5732 41.5806 32.6158 40.6492L28.3419 36.4914L33.9864 41.9822C34.8679 42.8397 36.2518 42.8257 37.1167 41.9502C38.0074 41.0488 38.0139 39.5743 37.1318 38.664L31.6429 33.002L37.6071 39.1544C38.4925 40.0678 39.9163 40.1153 40.8575 39.2628C41.9332 38.2884 41.9295 36.5635 40.8493 35.5943L28.8316 24.8072C27.1993 25.9874 25.5669 25.8643 25.5669 25.8643C23.5718 29.034 20.67 28.195 19.6725 27.4736C18.675 26.7522 18.8563 24.3729 23.0279 19.995C27.1995 15.617 29.5572 17.5679 31.5524 18.1272C33.5475 18.6866 39.8251 20.9915 39.8251 20.9915" stroke="#AD8024" stroke-width="2" stroke-linecap="round" stroke-linejoin="round"/>
<path d="M29.7421 44.2203C27.8483 45.7117 25.2439 45.8097 23.2518 44.46C19.1226 41.6627 12.43 36.7054 10.2437 32.626" stroke="#AD8024" stroke-width="2" stroke-linecap="round" stroke-linejoin="round"/>
<path d="M13.3027 19.2786C13.3027 19.2786 19.5712 18.9297 23.7541 19.2786" stroke="#AD8024" stroke-width="2" stroke-linecap="round" stroke-linejoin="round"/>
<path d="M41.4653 36.459C41.4653 36.459 43.9667 35.1139 44.5241 34.4268" stroke="#AD8024" stroke-width="2" stroke-linecap="round" stroke-linejoin="round"/>
</g>
<defs>
<clipPath id="clip0_558_1615">
<rect width="54" height="34" fill="white" transform="translate(0 13)"/>
</clipPath>
</defs>
</svg>
