<svg width="54" height="54" viewBox="0 0 54 54" fill="none" xmlns="http://www.w3.org/2000/svg">
<circle cx="27" cy="27" r="27" fill="white"/>
<g clip-path="url(#clip0_558_1615)">
<path d="M45.6669 35.2591H41.297L36.4756 21.7058L36.4955 21.6998C39.6799 20.7485 42.3463 19.6763 45.6669 19.6763C46.7039 22.4178 48.1558 29.6783 45.6669 35.2591Z" stroke="#AD8024" stroke-width="1.6" stroke-linecap="round" stroke-linejoin="round"/>
<path d="M16.7265 20.2662L13.4815 33.3855L7.94434 33.8237C5.9999 30.3825 6.77767 19.2942 9.11101 18.5295C10.9777 17.9178 14.9658 19.4324 16.7265 20.2662Z" stroke="#AD8024" stroke-width="1.6" stroke-linecap="round" stroke-linejoin="round"/>
<path d="M24.8002 36.7558L28.9663 40.7163C29.6265 41.3439 30.6518 41.358 31.3287 40.7489C32.0943 40.0597 32.1123 38.856 31.3677 38.1437L28.0436 34.9642L32.4337 39.1631C33.1194 39.8188 34.1958 39.8081 34.8684 39.1386C35.5612 38.4493 35.5663 37.3217 34.8802 36.6257L30.611 32.2959L35.2498 37.0007C35.9385 37.6991 37.0459 37.7355 37.7779 37.0836C38.6146 36.3384 38.6117 35.0194 37.7716 34.2782L28.4245 26.0293C27.1549 26.9318 25.8853 26.8377 25.8853 26.8377C24.3335 29.2615 22.0765 28.6199 21.3007 28.0683C20.5249 27.5166 20.6659 25.6972 23.9105 22.3493C27.1551 19.0015 28.9888 20.4933 30.5406 20.921C32.0924 21.3488 36.975 23.1114 36.975 23.1114" stroke="#AD8024" stroke-width="1.6" stroke-linecap="round" stroke-linejoin="round"/>
<path d="M29.1328 40.8745C27.6598 42.015 25.6342 42.09 24.0848 41.0579C20.8731 38.9187 15.6677 35.1278 13.9673 32.0083" stroke="#AD8024" stroke-width="1.6" stroke-linecap="round" stroke-linejoin="round"/>
<path d="M16.3467 21.8012C16.3467 21.8012 21.2221 21.5344 24.4756 21.8012" stroke="#AD8024" stroke-width="1.6" stroke-linecap="round" stroke-linejoin="round"/>
<path d="M38.251 34.9393C38.251 34.9393 40.1965 33.9107 40.63 33.3853" stroke="#AD8024" stroke-width="1.6" stroke-linecap="round" stroke-linejoin="round"/>
</g>
<defs>
<clipPath id="clip0_558_1615">
<rect width="42" height="26" fill="white" transform="translate(6 17)"/>
</clipPath>
</defs>
</svg>
