<svg width="51" height="51" viewBox="0 0 51 51" fill="none" xmlns="http://www.w3.org/2000/svg">
<path d="M23.347 32.298L23.301 32.206C23.531 32.114 24.221 31.7 24.612 31.424C27.579 29.377 30.339 26.778 30.339 23.466C30.339 20.591 28.315 18.682 25.164 18.682C22.151 18.682 20.081 20.384 20.081 22.914C20.081 23.627 20.173 23.949 20.219 24.041L22.266 23.719C22.197 23.558 22.151 23.282 22.151 23.006C22.151 21.511 23.37 20.522 25.187 20.522C27.004 20.522 28.223 21.695 28.223 23.558C28.223 27.537 23.83 29.745 20.242 32.321V34H30.845V32.229H24.681C24.06 32.229 23.531 32.275 23.347 32.298Z" fill="#AD8024"/>
<circle cx="25.5" cy="25.5" r="24.5" stroke="#AD8024" stroke-width="2"/>
</svg>
