<svg width="51" height="51" viewBox="0 0 51 51" fill="none" xmlns="http://www.w3.org/2000/svg">
<path d="M25.279 18.682C22.312 18.682 20.334 20.315 20.334 22.569C20.334 23.282 20.426 23.604 20.472 23.696L22.519 23.374C22.45 23.213 22.404 22.937 22.404 22.661C22.404 21.442 23.531 20.522 25.279 20.522C27.027 20.522 28.2 21.626 28.2 23.144C28.2 24.57 26.935 25.283 25.003 25.398L24.152 25.444V27.307L24.98 27.353C27.487 27.491 28.775 28.273 28.752 29.791C28.729 31.332 27.51 32.298 25.325 32.298C22.726 32.298 21.507 30.297 21.507 30.297L19.828 31.286C19.828 31.286 21.047 34.138 25.325 34.138C28.867 34.138 30.868 32.321 30.868 29.975C30.868 27.56 28.752 26.341 27.211 26.341V26.295C28.706 26.295 30.316 24.892 30.316 22.983C30.316 20.407 28.338 18.682 25.279 18.682Z" fill="#AD8024"/>
<circle cx="25.5" cy="25.5" r="24.5" stroke="#AD8024" stroke-width="2"/>
</svg>
