<svg width="51" height="51" viewBox="0 0 51 51" fill="none" xmlns="http://www.w3.org/2000/svg">
<path d="M21.254 18.82L20.61 26.893H22.68C22.68 26.893 23.6 25.743 25.417 25.743C27.441 25.743 28.821 27.054 28.821 28.986C28.821 30.987 27.257 32.298 25.164 32.298C22.68 32.298 21.484 30.274 21.484 30.274L19.759 31.378C19.759 31.378 21.323 34.138 25.164 34.138C28.545 34.138 30.937 32.068 30.937 28.986C30.937 25.973 28.867 23.88 25.762 23.88C24.382 23.88 23.278 24.386 22.726 24.961L22.657 24.915L23.071 20.591H29.925V18.82H21.254Z" fill="#AD8024"/>
<circle cx="25.5" cy="25.5" r="24.5" stroke="#AD8024" stroke-width="2"/>
</svg>
