<svg width="51" height="51" viewBox="0 0 51 51" fill="none" xmlns="http://www.w3.org/2000/svg">
<path d="M26.567 24.317C23.508 24.317 22.496 26.272 22.381 26.962L22.289 26.939V26.456C22.289 22.891 24.06 20.522 26.659 20.522C28.522 20.522 29.442 21.35 29.81 21.787L30.96 20.453C30.362 19.786 29.143 18.682 26.521 18.682C22.703 18.682 20.173 21.833 20.173 26.548C20.173 31.585 22.657 34.138 26.153 34.138C29.281 34.138 31.42 32.137 31.42 29.124C31.42 26.249 29.327 24.317 26.567 24.317ZM26.13 32.298C24.175 32.298 23.071 31.263 22.588 29.354C22.611 27.468 24.014 26.18 26.13 26.18C28.039 26.18 29.304 27.353 29.304 29.124C29.304 31.033 27.993 32.298 26.13 32.298Z" fill="#AD8024"/>
<circle cx="25.5" cy="25.5" r="24.5" stroke="#AD8024" stroke-width="2"/>
</svg>
